# Blender 4.1.0
# www.blender.org
mtllib Skydome.mtl
o 球
v 0.000000 0.923880 0.382683
v 0.000000 0.831470 0.555570
v 0.000000 0.555570 0.831470
v 0.000000 0.382683 0.923880
v 0.000000 0.195090 0.980785
v 0.000000 0.000000 1.000000
v -0.040562 0.980785 0.190827
v -0.079564 0.923880 0.374321
v -0.115510 0.831470 0.543430
v -0.147016 0.707107 0.691655
v -0.172872 0.555570 0.813300
v -0.192085 0.382683 0.903691
v -0.203917 0.195090 0.959353
v -0.207912 0.000000 0.978148
v -0.079350 0.980785 0.178224
v -0.155651 0.923880 0.349599
v -0.225971 0.831470 0.507539
v -0.287606 0.707107 0.645974
v -0.338189 0.555570 0.759585
v -0.375776 0.382683 0.844006
v -0.398921 0.195090 0.895992
v -0.406737 0.000000 0.913546
v -0.114671 0.980785 0.157831
v -0.224936 0.923880 0.309597
v -0.326556 0.831470 0.449466
v -0.415627 0.707107 0.572061
v -0.488726 0.555570 0.672673
v -0.543043 0.382683 0.747434
v -0.576491 0.195090 0.793472
v -0.587785 0.000000 0.809017
v -0.144980 0.980785 0.130541
v -0.284389 0.923880 0.256065
v -0.412869 0.831470 0.371749
v -0.525483 0.707107 0.473147
v -0.617902 0.555570 0.556362
v -0.686576 0.382683 0.618196
v -0.728866 0.195090 0.656274
v -0.743145 0.000000 0.669131
v -0.000000 1.000000 -0.000000
v -0.168953 0.980785 0.097545
v -0.331414 0.923880 0.191342
v -0.481138 0.831470 0.277785
v -0.612372 0.707107 0.353553
v -0.720074 0.555570 0.415735
v -0.800103 0.382683 0.461940
v -0.849385 0.195090 0.490393
v -0.866026 0.000000 0.500000
v -0.185542 0.980785 0.060286
v -0.363954 0.923880 0.118256
v -0.528379 0.831470 0.171681
v -0.672499 0.707107 0.218508
v -0.790775 0.555570 0.256938
v -0.878662 0.382683 0.285494
v -0.932782 0.195090 0.303079
v -0.951057 0.000000 0.309017
v -0.194022 0.980785 0.020392
v -0.380587 0.923880 0.040001
v -0.552527 0.831470 0.058073
v -0.703233 0.707107 0.073913
v -0.826915 0.555570 0.086912
v -0.918819 0.382683 0.096572
v -0.975413 0.195090 0.102520
v -0.994522 0.000000 0.104528
v -0.194022 0.980785 -0.020392
v -0.380587 0.923880 -0.040001
v -0.552527 0.831470 -0.058073
v -0.703233 0.707107 -0.073913
v -0.826915 0.555570 -0.086912
v -0.918819 0.382683 -0.096572
v -0.975413 0.195090 -0.102520
v -0.994522 -0.000000 -0.104529
v -0.185542 0.980785 -0.060286
v -0.363954 0.923880 -0.118256
v -0.528379 0.831470 -0.171681
v -0.672499 0.707107 -0.218508
v -0.790775 0.555570 -0.256938
v -0.878662 0.382683 -0.285495
v -0.932782 0.195090 -0.303079
v -0.951057 -0.000000 -0.309017
v -0.168953 0.980785 -0.097545
v -0.331414 0.923880 -0.191342
v -0.481138 0.831470 -0.277785
v -0.612373 0.707107 -0.353553
v -0.720074 0.555570 -0.415735
v -0.800103 0.382683 -0.461940
v -0.849385 0.195090 -0.490393
v -0.866026 -0.000000 -0.500000
v -0.144980 0.980785 -0.130541
v -0.284389 0.923880 -0.256065
v -0.412869 0.831470 -0.371749
v -0.525483 0.707107 -0.473147
v -0.617902 0.555570 -0.556362
v -0.686576 0.382683 -0.618196
v -0.728866 0.195090 -0.656274
v -0.743145 -0.000000 -0.669131
v -0.114671 0.980785 -0.157831
v -0.224936 0.923880 -0.309598
v -0.326556 0.831470 -0.449466
v -0.415627 0.707107 -0.572061
v -0.488726 0.555570 -0.672673
v -0.543043 0.382683 -0.747435
v -0.576491 0.195090 -0.793472
v -0.587785 -0.000000 -0.809017
v -0.079350 0.980785 -0.178224
v -0.155651 0.923880 -0.349599
v -0.225971 0.831470 -0.507539
v -0.287606 0.707107 -0.645974
v -0.338189 0.555570 -0.759585
v -0.375776 0.382683 -0.844006
v -0.398921 0.195090 -0.895992
v -0.406737 -0.000000 -0.913546
v -0.040562 0.980785 -0.190827
v -0.079564 0.923880 -0.374321
v -0.115510 0.831470 -0.543430
v -0.147016 0.707107 -0.691655
v -0.172872 0.555570 -0.813300
v -0.192085 0.382683 -0.903691
v -0.203917 0.195090 -0.959353
v -0.207912 -0.000000 -0.978148
v -0.000000 0.980785 -0.195090
v -0.000000 0.923880 -0.382684
v -0.000000 0.831470 -0.555571
v -0.000000 0.707107 -0.707107
v -0.000000 0.555570 -0.831470
v -0.000000 0.382683 -0.923880
v -0.000000 0.195090 -0.980786
v -0.000000 -0.000000 -1.000000
v 0.040562 0.980785 -0.190827
v 0.079564 0.923880 -0.374321
v 0.115510 0.831470 -0.543430
v 0.147016 0.707107 -0.691655
v 0.172872 0.555570 -0.813300
v 0.192086 0.382683 -0.903691
v 0.203917 0.195090 -0.959353
v 0.207912 -0.000000 -0.978148
v 0.079350 0.980785 -0.178224
v 0.155651 0.923880 -0.349599
v 0.225971 0.831470 -0.507539
v 0.287606 0.707107 -0.645974
v 0.338189 0.555570 -0.759585
v 0.375776 0.382683 -0.844006
v 0.398922 0.195090 -0.895992
v 0.406737 -0.000000 -0.913546
v 0.114671 0.980785 -0.157831
v 0.224936 0.923880 -0.309598
v 0.326556 0.831470 -0.449466
v 0.415627 0.707107 -0.572062
v 0.488726 0.555570 -0.672673
v 0.543043 0.382683 -0.747435
v 0.576491 0.195090 -0.793472
v 0.587786 -0.000000 -0.809017
v 0.144980 0.980785 -0.130541
v 0.284389 0.923880 -0.256065
v 0.412870 0.831470 -0.371749
v 0.525483 0.707107 -0.473147
v 0.617903 0.555570 -0.556362
v 0.686577 0.382683 -0.618196
v 0.728866 0.195090 -0.656274
v 0.743145 -0.000000 -0.669131
v 0.168953 0.980785 -0.097545
v 0.331414 0.923880 -0.191342
v 0.481138 0.831470 -0.277785
v 0.612373 0.707107 -0.353554
v 0.720074 0.555570 -0.415735
v 0.800104 0.382683 -0.461940
v 0.849385 0.195090 -0.490393
v 0.866026 -0.000000 -0.500000
v 0.185542 0.980785 -0.060286
v 0.363954 0.923880 -0.118256
v 0.528379 0.831470 -0.171681
v 0.672499 0.707107 -0.218508
v 0.790775 0.555570 -0.256938
v 0.878662 0.382683 -0.285495
v 0.932783 0.195090 -0.303079
v 0.951057 -0.000000 -0.309017
v 0.194022 0.980785 -0.020392
v 0.380587 0.923880 -0.040001
v 0.552527 0.831470 -0.058073
v 0.703233 0.707107 -0.073913
v 0.826915 0.555570 -0.086912
v 0.918819 0.382683 -0.096572
v 0.975413 0.195090 -0.102520
v 0.994523 -0.000000 -0.104528
v 0.194022 0.980785 0.020393
v 0.380587 0.923880 0.040001
v 0.552527 0.831470 0.058073
v 0.703233 0.707107 0.073913
v 0.826915 0.555570 0.086912
v 0.918819 0.382683 0.096572
v 0.975413 0.195090 0.102520
v 0.994523 0.000000 0.104529
v 0.185542 0.980785 0.060286
v 0.363954 0.923880 0.118256
v 0.528379 0.831470 0.171681
v 0.672499 0.707107 0.218508
v 0.790775 0.555570 0.256938
v 0.878662 0.382683 0.285495
v 0.932783 0.195090 0.303080
v 0.951057 0.000000 0.309017
v 0.168953 0.980785 0.097545
v 0.331414 0.923880 0.191342
v 0.481138 0.831470 0.277785
v 0.612373 0.707107 0.353554
v 0.720074 0.555570 0.415735
v 0.800104 0.382683 0.461940
v 0.849385 0.195090 0.490393
v 0.866026 0.000000 0.500001
v 0.144980 0.980785 0.130541
v 0.284389 0.923880 0.256065
v 0.412870 0.831470 0.371749
v 0.525483 0.707107 0.473147
v 0.617903 0.555570 0.556362
v 0.686577 0.382683 0.618197
v 0.728866 0.195090 0.656274
v 0.743145 0.000000 0.669131
v 0.114671 0.980785 0.157831
v 0.224936 0.923880 0.309598
v 0.326556 0.831470 0.449466
v 0.415627 0.707107 0.572062
v 0.488726 0.555570 0.672673
v 0.543043 0.382683 0.747435
v 0.576491 0.195090 0.793473
v 0.587786 0.000000 0.809018
v 0.079350 0.980785 0.178224
v 0.155651 0.923880 0.349599
v 0.225971 0.831470 0.507539
v 0.287606 0.707107 0.645975
v 0.338189 0.555570 0.759586
v 0.375776 0.382683 0.844007
v 0.398922 0.195090 0.895993
v 0.406737 0.000000 0.913546
v 0.040562 0.980785 0.190827
v 0.079564 0.923880 0.374321
v 0.115510 0.831470 0.543430
v 0.147016 0.707107 0.691655
v 0.172872 0.555570 0.813300
v 0.192085 0.382683 0.903691
v 0.203917 0.195090 0.959354
v 0.207912 0.000000 0.978149
v 0.000000 0.980785 0.195090
v 0.000000 0.707107 0.707107
vn 0.1040 -0.0975 -0.9898
vn 0.0103 -0.9951 -0.0980
vn 0.0305 -0.9565 -0.2901
vn 0.0495 -0.8808 -0.4708
vn 0.0665 -0.7713 -0.6330
vn 0.0810 -0.6323 -0.7705
vn 0.0923 -0.4694 -0.8782
vn 0.1001 -0.2888 -0.9521
vn 0.2958 -0.2888 -0.9105
vn 0.3075 -0.0975 -0.9465
vn 0.0305 -0.9951 -0.0937
vn 0.0902 -0.9565 -0.2775
vn 0.1463 -0.8808 -0.4502
vn 0.1967 -0.7713 -0.6053
vn 0.2394 -0.6323 -0.7368
vn 0.2729 -0.4694 -0.8398
vn 0.2367 -0.8808 -0.4100
vn 0.3182 -0.7713 -0.5512
vn 0.3874 -0.6323 -0.6709
vn 0.4415 -0.4694 -0.7647
vn 0.4787 -0.2888 -0.8291
vn 0.4976 -0.0975 -0.8619
vn 0.0493 -0.9951 -0.0853
vn 0.1459 -0.9565 -0.2527
vn 0.6406 -0.2888 -0.7115
vn 0.6659 -0.0975 -0.7396
vn 0.0659 -0.9951 -0.0732
vn 0.1952 -0.9565 -0.2168
vn 0.3168 -0.8808 -0.3518
vn 0.4259 -0.7713 -0.4730
vn 0.5184 -0.6323 -0.5757
vn 0.5908 -0.4694 -0.6562
vn 0.5149 -0.7713 -0.3741
vn 0.6268 -0.6323 -0.4554
vn 0.7144 -0.4694 -0.5190
vn 0.7745 -0.2888 -0.5627
vn 0.8052 -0.0975 -0.5850
vn 0.0797 -0.9951 -0.0579
vn 0.2360 -0.9565 -0.1715
vn 0.3830 -0.8808 -0.2783
vn 0.9092 -0.0975 -0.4048
vn 0.0900 -0.9951 -0.0401
vn 0.2665 -0.9565 -0.1187
vn 0.4325 -0.8808 -0.1926
vn 0.5814 -0.7713 -0.2589
vn 0.7077 -0.6323 -0.3151
vn 0.8067 -0.4694 -0.3591
vn 0.8746 -0.2888 -0.3894
vn 0.7578 -0.6323 -0.1611
vn 0.8637 -0.4694 -0.1836
vn 0.9365 -0.2888 -0.1991
vn 0.9735 -0.0975 -0.2069
vn 0.0964 -0.9951 -0.0205
vn 0.2854 -0.9565 -0.0607
vn 0.4631 -0.8808 -0.0984
vn 0.6226 -0.7713 -0.1323
vn 0.0986 -0.9951 -0.0000
vn 0.2917 -0.9565 -0.0000
vn 0.4734 -0.8808 -0.0000
vn 0.6365 -0.7713 -0.0000
vn 0.7747 -0.6323 -0.0000
vn 0.8830 -0.4694 -0.0000
vn 0.9574 -0.2888 -0.0000
vn 0.9952 -0.0975 -0.0000
vn 0.7578 -0.6323 0.1611
vn 0.8637 -0.4694 0.1836
vn 0.9365 -0.2888 0.1991
vn 0.9735 -0.0975 0.2069
vn 0.0964 -0.9951 0.0205
vn 0.2854 -0.9565 0.0607
vn 0.4631 -0.8808 0.0984
vn 0.6226 -0.7713 0.1323
vn 0.2665 -0.9565 0.1187
vn 0.4325 -0.8808 0.1926
vn 0.5814 -0.7713 0.2589
vn 0.7077 -0.6323 0.3151
vn 0.8067 -0.4694 0.3591
vn 0.8746 -0.2888 0.3894
vn 0.9092 -0.0975 0.4048
vn 0.0900 -0.9951 0.0401
vn 0.7144 -0.4694 0.5190
vn 0.7745 -0.2888 0.5627
vn 0.8052 -0.0975 0.5850
vn 0.0797 -0.9951 0.0579
vn 0.2360 -0.9565 0.1715
vn 0.3830 -0.8808 0.2783
vn 0.5149 -0.7713 0.3741
vn 0.6268 -0.6323 0.4554
vn 0.1952 -0.9565 0.2168
vn 0.3168 -0.8808 0.3518
vn 0.4259 -0.7713 0.4730
vn 0.5184 -0.6323 0.5757
vn 0.5908 -0.4694 0.6562
vn 0.6406 -0.2888 0.7115
vn 0.6659 -0.0975 0.7396
vn 0.0659 -0.9951 0.0732
vn 0.4415 -0.4694 0.7647
vn 0.4787 -0.2888 0.8291
vn 0.4976 -0.0975 0.8619
vn 0.0493 -0.9951 0.0853
vn 0.1459 -0.9565 0.2527
vn 0.2367 -0.8808 0.4100
vn 0.3182 -0.7713 0.5512
vn 0.3874 -0.6323 0.6709
vn 0.1463 -0.8808 0.4502
vn 0.1967 -0.7713 0.6053
vn 0.2394 -0.6323 0.7368
vn 0.2729 -0.4694 0.8398
vn 0.2958 -0.2888 0.9105
vn 0.3075 -0.0975 0.9465
vn 0.0305 -0.9951 0.0937
vn 0.0902 -0.9565 0.2775
vn 0.1001 -0.2888 0.9521
vn 0.1040 -0.0975 0.9898
vn 0.0103 -0.9951 0.0980
vn 0.0305 -0.9565 0.2901
vn 0.0495 -0.8808 0.4708
vn 0.0665 -0.7713 0.6330
vn 0.0810 -0.6323 0.7705
vn 0.0923 -0.4694 0.8782
vn -0.0665 -0.7713 0.6330
vn -0.0810 -0.6323 0.7705
vn -0.0923 -0.4694 0.8782
vn -0.1001 -0.2888 0.9521
vn -0.1040 -0.0975 0.9898
vn -0.0103 -0.9951 0.0980
vn -0.0305 -0.9565 0.2901
vn -0.0495 -0.8808 0.4708
vn -0.3075 -0.0975 0.9465
vn -0.0305 -0.9951 0.0937
vn -0.0902 -0.9565 0.2775
vn -0.1463 -0.8808 0.4502
vn -0.1967 -0.7713 0.6053
vn -0.2394 -0.6323 0.7368
vn -0.2729 -0.4694 0.8398
vn -0.2958 -0.2888 0.9105
vn -0.3182 -0.7713 0.5512
vn -0.3874 -0.6323 0.6709
vn -0.4415 -0.4694 0.7647
vn -0.4787 -0.2888 0.8291
vn -0.4976 -0.0975 0.8619
vn -0.0493 -0.9951 0.0853
vn -0.1459 -0.9565 0.2527
vn -0.2367 -0.8808 0.4100
vn -0.6659 -0.0975 0.7396
vn -0.0659 -0.9951 0.0732
vn -0.1952 -0.9565 0.2168
vn -0.3168 -0.8808 0.3518
vn -0.4259 -0.7713 0.4730
vn -0.5184 -0.6323 0.5757
vn -0.5908 -0.4694 0.6562
vn -0.6406 -0.2888 0.7115
vn -0.6268 -0.6323 0.4554
vn -0.7144 -0.4694 0.5190
vn -0.7745 -0.2888 0.5627
vn -0.8052 -0.0975 0.5850
vn -0.0797 -0.9951 0.0579
vn -0.2360 -0.9565 0.1715
vn -0.3830 -0.8808 0.2783
vn -0.5149 -0.7713 0.3741
vn -0.0900 -0.9951 0.0401
vn -0.2665 -0.9565 0.1187
vn -0.4325 -0.8808 0.1926
vn -0.5814 -0.7713 0.2589
vn -0.7077 -0.6323 0.3151
vn -0.8067 -0.4694 0.3591
vn -0.8746 -0.2888 0.3894
vn -0.9092 -0.0975 0.4048
vn -0.7578 -0.6323 0.1611
vn -0.8637 -0.4694 0.1836
vn -0.9365 -0.2888 0.1991
vn -0.9735 -0.0975 0.2069
vn -0.0964 -0.9951 0.0205
vn -0.2854 -0.9565 0.0607
vn -0.4631 -0.8808 0.0984
vn -0.6226 -0.7713 0.1323
vn -0.2917 -0.9565 -0.0000
vn -0.4734 -0.8808 -0.0000
vn -0.6365 -0.7713 -0.0000
vn -0.7747 -0.6323 -0.0000
vn -0.8830 -0.4694 -0.0000
vn -0.9574 -0.2888 -0.0000
vn -0.9952 -0.0975 -0.0000
vn -0.0986 -0.9951 -0.0000
vn -0.8637 -0.4694 -0.1836
vn -0.9365 -0.2888 -0.1990
vn -0.9735 -0.0975 -0.2069
vn -0.0964 -0.9951 -0.0205
vn -0.2854 -0.9565 -0.0607
vn -0.4631 -0.8808 -0.0984
vn -0.6226 -0.7713 -0.1323
vn -0.7578 -0.6323 -0.1611
vn -0.4325 -0.8808 -0.1926
vn -0.5814 -0.7713 -0.2589
vn -0.7077 -0.6323 -0.3151
vn -0.8067 -0.4694 -0.3591
vn -0.8746 -0.2888 -0.3894
vn -0.9092 -0.0975 -0.4048
vn -0.0900 -0.9951 -0.0401
vn -0.2665 -0.9565 -0.1187
vn -0.7745 -0.2888 -0.5627
vn -0.8052 -0.0975 -0.5850
vn -0.0797 -0.9951 -0.0579
vn -0.2360 -0.9565 -0.1715
vn -0.3830 -0.8808 -0.2783
vn -0.5149 -0.7713 -0.3741
vn -0.6268 -0.6323 -0.4554
vn -0.7144 -0.4694 -0.5190
vn -0.3168 -0.8808 -0.3518
vn -0.4259 -0.7713 -0.4730
vn -0.5184 -0.6323 -0.5757
vn -0.5908 -0.4694 -0.6562
vn -0.6406 -0.2888 -0.7115
vn -0.6659 -0.0975 -0.7396
vn -0.0659 -0.9951 -0.0732
vn -0.1952 -0.9565 -0.2168
vn -0.4787 -0.2888 -0.8291
vn -0.4976 -0.0975 -0.8619
vn -0.0493 -0.9951 -0.0853
vn -0.1459 -0.9565 -0.2527
vn -0.2367 -0.8808 -0.4100
vn -0.3182 -0.7713 -0.5512
vn -0.3874 -0.6323 -0.6709
vn -0.4415 -0.4694 -0.7647
vn -0.1967 -0.7713 -0.6053
vn -0.2394 -0.6323 -0.7368
vn -0.2729 -0.4694 -0.8398
vn -0.2958 -0.2888 -0.9105
vn -0.3075 -0.0975 -0.9465
vn -0.0305 -0.9951 -0.0937
vn -0.0902 -0.9565 -0.2775
vn -0.1463 -0.8808 -0.4502
vn -0.1040 -0.0975 -0.9898
vn -0.0103 -0.9951 -0.0980
vn -0.0305 -0.9565 -0.2901
vn -0.0495 -0.8808 -0.4708
vn -0.0665 -0.7713 -0.6330
vn -0.0810 -0.6323 -0.7705
vn -0.0923 -0.4694 -0.8782
vn -0.1001 -0.2888 -0.9521
vn -0.9365 -0.2888 -0.1991
vt 0.700000 0.500000
vt 0.733333 0.562500
vt 0.733333 0.500000
vt 0.733333 0.937500
vt 0.700000 0.937500
vt 0.716667 1.000000
vt 0.700000 0.875000
vt 0.733333 0.875000
vt 0.733333 0.812500
vt 0.700000 0.750000
vt 0.733333 0.750000
vt 0.700000 0.687500
vt 0.733333 0.687500
vt 0.700000 0.625000
vt 0.733333 0.625000
vt 0.666667 0.562500
vt 0.700000 0.562500
vt 0.666667 0.500000
vt 0.666667 0.937500
vt 0.683333 1.000000
vt 0.666667 0.875000
vt 0.700000 0.812500
vt 0.666667 0.812500
vt 0.666667 0.750000
vt 0.666667 0.625000
vt 0.633333 0.812500
vt 0.633333 0.750000
vt 0.666667 0.687500
vt 0.633333 0.625000
vt 0.633333 0.562500
vt 0.633333 0.500000
vt 0.633333 0.937500
vt 0.650000 1.000000
vt 0.600000 0.562500
vt 0.600000 0.937500
vt 0.616667 1.000000
vt 0.633333 0.875000
vt 0.600000 0.875000
vt 0.600000 0.750000
vt 0.633333 0.687500
vt 0.600000 0.625000
vt 0.566667 0.750000
vt 0.600000 0.812500
vt 0.600000 0.687500
vt 0.566667 0.625000
vt 0.566667 0.562500
vt 0.600000 0.500000
vt 0.566667 0.937500
vt 0.583333 1.000000
vt 0.566667 0.875000
vt 0.566667 0.500000
vt 0.533333 0.562500
vt 0.533333 0.937500
vt 0.550000 1.000000
vt 0.533333 0.875000
vt 0.566667 0.812500
vt 0.533333 0.750000
vt 0.566667 0.687500
vt 0.533333 0.625000
vt 0.533333 0.687500
vt 0.500000 0.750000
vt 0.500000 0.687500
vt 0.500000 0.562500
vt 0.533333 0.500000
vt 0.500000 0.937500
vt 0.516667 1.000000
vt 0.500000 0.875000
vt 0.533333 0.812500
vt 0.466667 0.937500
vt 0.483333 1.000000
vt 0.500000 0.812500
vt 0.466667 0.875000
vt 0.466667 0.750000
vt 0.500000 0.625000
vt 0.466667 0.687500
vt 0.466667 0.562500
vt 0.500000 0.500000
vt 0.433333 0.750000
vt 0.466667 0.625000
vt 0.433333 0.687500
vt 0.433333 0.562500
vt 0.466667 0.500000
vt 0.433333 0.937500
vt 0.450000 1.000000
vt 0.466667 0.812500
vt 0.433333 0.875000
vt 0.400000 0.875000
vt 0.433333 0.812500
vt 0.400000 0.750000
vt 0.433333 0.625000
vt 0.400000 0.687500
vt 0.400000 0.562500
vt 0.433333 0.500000
vt 0.400000 0.937500
vt 0.416667 1.000000
vt 0.400000 0.625000
vt 0.366667 0.687500
vt 0.366667 0.562500
vt 0.400000 0.500000
vt 0.366667 0.937500
vt 0.383333 1.000000
vt 0.400000 0.812500
vt 0.366667 0.875000
vt 0.366667 0.750000
vt 0.333333 0.875000
vt 0.366667 0.812500
vt 0.333333 0.750000
vt 0.333333 0.625000
vt 0.366667 0.625000
vt 0.333333 0.562500
vt 0.366667 0.500000
vt 0.333333 0.937500
vt 0.350000 1.000000
vt 0.300000 0.625000
vt 0.333333 0.687500
vt 0.300000 0.562500
vt 0.333333 0.500000
vt 0.300000 0.937500
vt 0.316667 1.000000
vt 0.300000 0.875000
vt 0.333333 0.812500
vt 0.300000 0.750000
vt 0.300000 0.812500
vt 0.266667 0.875000
vt 0.266667 0.750000
vt 0.300000 0.687500
vt 0.266667 0.625000
vt 0.266667 0.562500
vt 0.300000 0.500000
vt 0.266667 0.937500
vt 0.283333 1.000000
vt 0.233333 0.562500
vt 0.266667 0.500000
vt 0.233333 0.937500
vt 0.250000 1.000000
vt 0.233333 0.875000
vt 0.266667 0.812500
vt 0.233333 0.750000
vt 0.266667 0.687500
vt 0.233333 0.625000
vt 0.200000 0.750000
vt 0.233333 0.812500
vt 0.233333 0.687500
vt 0.200000 0.625000
vt 0.200000 0.562500
vt 0.233333 0.500000
vt 0.200000 0.937500
vt 0.216667 1.000000
vt 0.200000 0.875000
vt 0.200000 0.500000
vt 0.166667 0.562500
vt 0.166667 0.937500
vt 0.183333 1.000000
vt 0.166667 0.875000
vt 0.200000 0.812500
vt 0.166667 0.750000
vt 0.200000 0.687500
vt 0.166667 0.625000
vt 0.133333 0.750000
vt 0.166667 0.812500
vt 0.166667 0.687500
vt 0.133333 0.625000
vt 0.133333 0.562500
vt 0.166667 0.500000
vt 0.133333 0.937500
vt 0.150000 1.000000
vt 0.133333 0.875000
vt 0.133333 0.500000
vt 0.100000 0.562500
vt 0.100000 0.937500
vt 0.116667 1.000000
vt 0.100000 0.875000
vt 0.133333 0.812500
vt 0.100000 0.750000
vt 0.133333 0.687500
vt 0.100000 0.625000
vt 0.100000 0.687500
vt 0.066667 0.750000
vt 0.066667 0.625000
vt 0.066667 0.562500
vt 0.100000 0.500000
vt 0.066667 0.937500
vt 0.083333 1.000000
vt 0.100000 0.812500
vt 0.066667 0.875000
vt 0.033333 0.937500
vt 0.050000 1.000000
vt 0.066667 0.812500
vt 0.033333 0.875000
vt 0.033333 0.750000
vt 0.066667 0.687500
vt 0.033333 0.625000
vt 0.033333 0.562500
vt 0.066667 0.500000
vt 0.033333 0.687500
vt 0.000000 0.750000
vt 0.000000 0.625000
vt 0.000000 0.562500
vt 0.033333 0.500000
vt 0.000000 0.937500
vt 0.016667 1.000000
vt 0.033333 0.812500
vt 0.000000 0.875000
vt 1.000000 0.875000
vt 0.966667 0.937500
vt 1.000000 0.937500
vt 1.000000 0.812500
vt 0.966667 0.875000
vt 0.966667 0.750000
vt 1.000000 0.750000
vt 1.000000 0.687500
vt 0.966667 0.625000
vt 1.000000 0.625000
vt 0.966667 0.562500
vt 1.000000 0.562500
vt 1.000000 0.500000
vt 0.983333 1.000000
vt 0.933333 0.625000
vt 0.966667 0.687500
vt 0.933333 0.562500
vt 0.966667 0.500000
vt 0.933333 0.937500
vt 0.950000 1.000000
vt 0.966667 0.812500
vt 0.933333 0.875000
vt 0.933333 0.750000
vt 0.933333 0.812500
vt 0.900000 0.875000
vt 0.900000 0.750000
vt 0.933333 0.687500
vt 0.900000 0.625000
vt 0.900000 0.562500
vt 0.933333 0.500000
vt 0.900000 0.937500
vt 0.916667 1.000000
vt 0.866667 0.562500
vt 0.900000 0.500000
vt 0.866667 0.937500
vt 0.883333 1.000000
vt 0.900000 0.812500
vt 0.866667 0.875000
vt 0.866667 0.750000
vt 0.900000 0.687500
vt 0.866667 0.687500
vt 0.866667 0.812500
vt 0.833333 0.875000
vt 0.833333 0.750000
vt 0.866667 0.625000
vt 0.833333 0.687500
vt 0.833333 0.562500
vt 0.866667 0.500000
vt 0.833333 0.937500
vt 0.850000 1.000000
vt 0.800000 0.562500
vt 0.833333 0.625000
vt 0.833333 0.500000
vt 0.800000 0.937500
vt 0.816667 1.000000
vt 0.833333 0.812500
vt 0.800000 0.875000
vt 0.800000 0.750000
vt 0.800000 0.687500
vt 0.766667 0.750000
vt 0.800000 0.812500
vt 0.800000 0.625000
vt 0.766667 0.687500
vt 0.766667 0.562500
vt 0.800000 0.500000
vt 0.766667 0.937500
vt 0.783333 1.000000
vt 0.766667 0.875000
vt 0.766667 0.500000
vt 0.750000 1.000000
vt 0.766667 0.812500
vt 0.766667 0.625000
vt 0.000000 0.687500
vt 0.000000 0.500000
vt 0.000000 0.812500
s 0
usemtl マテリアル
f 14/1/1 5/2/1 6/3/1
f 240/4/2 7/5/2 39/6/2
f 8/7/3 240/4/3 1/8/3
f 2/9/4 8/7/4 1/8/4
f 10/10/5 2/9/5 241/11/5
f 11/12/6 241/11/6 3/13/6
f 12/14/7 3/13/7 4/15/7
f 5/2/8 12/14/8 4/15/8
f 21/16/9 12/14/9 13/17/9
f 22/18/10 13/17/10 14/1/10
f 7/5/11 15/19/11 39/20/11
f 16/21/12 7/5/12 8/7/12
f 9/22/13 16/21/13 8/7/13
f 10/10/14 17/23/14 9/22/14
f 11/12/15 18/24/15 10/10/15
f 20/25/16 11/12/16 12/14/16
f 25/26/17 16/21/17 17/23/17
f 26/27/18 17/23/18 18/24/18
f 19/28/19 26/27/19 18/24/19
f 28/29/20 19/28/20 20/25/20
f 29/30/21 20/25/21 21/16/21
f 30/31/22 21/16/22 22/18/22
f 15/19/23 23/32/23 39/33/23
f 16/21/24 23/32/24 15/19/24
f 37/34/25 28/29/25 29/30/25
f 30/31/26 37/34/26 29/30/26
f 23/32/27 31/35/27 39/36/27
f 24/37/28 31/35/28 23/32/28
f 25/26/29 32/38/29 24/37/29
f 34/39/30 25/26/30 26/27/30
f 27/40/31 34/39/31 26/27/31
f 36/41/32 27/40/32 28/29/32
f 43/42/33 33/43/33 34/39/33
f 35/44/34 43/42/34 34/39/34
f 45/45/35 35/44/35 36/41/35
f 46/46/36 36/41/36 37/34/36
f 38/47/37 46/46/37 37/34/37
f 31/35/38 40/48/38 39/49/38
f 41/50/39 31/35/39 32/38/39
f 33/43/40 41/50/40 32/38/40
f 47/51/41 54/52/41 46/46/41
f 40/48/42 48/53/42 39/54/42
f 49/55/43 40/48/43 41/50/43
f 42/56/44 49/55/44 41/50/44
f 51/57/45 42/56/45 43/42/45
f 44/58/46 51/57/46 43/42/46
f 53/59/47 44/58/47 45/45/47
f 54/52/48 45/45/48 46/46/48
f 52/60/49 59/61/49 51/57/49
f 53/59/50 60/62/50 52/60/50
f 62/63/51 53/59/51 54/52/51
f 55/64/52 62/63/52 54/52/52
f 48/53/53 56/65/53 39/66/53
f 57/67/54 48/53/54 49/55/54
f 50/68/55 57/67/55 49/55/55
f 59/61/56 50/68/56 51/57/56
f 56/65/57 64/69/57 39/70/57
f 57/67/58 64/69/58 56/65/58
f 58/71/59 65/72/59 57/67/59
f 67/73/60 58/71/60 59/61/60
f 60/62/61 67/73/61 59/61/61
f 61/74/62 68/75/62 60/62/62
f 70/76/63 61/74/63 62/63/63
f 63/77/64 70/76/64 62/63/64
f 68/75/65 75/78/65 67/73/65
f 69/79/66 76/80/66 68/75/66
f 78/81/67 69/79/67 70/76/67
f 71/82/68 78/81/68 70/76/68
f 64/69/69 72/83/69 39/84/69
f 65/72/70 72/83/70 64/69/70
f 66/85/71 73/86/71 65/72/71
f 75/78/72 66/85/72 67/73/72
f 81/87/73 72/83/73 73/86/73
f 74/88/74 81/87/74 73/86/74
f 83/89/75 74/88/75 75/78/75
f 76/80/76 83/89/76 75/78/76
f 77/90/77 84/91/77 76/80/77
f 86/92/78 77/90/78 78/81/78
f 79/93/79 86/92/79 78/81/79
f 72/83/80 80/94/80 39/95/80
f 85/96/81 92/97/81 84/91/81
f 94/98/82 85/96/82 86/92/82
f 87/99/83 94/98/83 86/92/83
f 80/94/84 88/100/84 39/101/84
f 81/87/85 88/100/85 80/94/85
f 82/102/86 89/103/86 81/87/86
f 91/104/87 82/102/87 83/89/87
f 84/91/88 91/104/88 83/89/88
f 97/105/89 88/100/89 89/103/89
f 90/106/90 97/105/90 89/103/90
f 99/107/91 90/106/91 91/104/91
f 92/97/92 99/107/92 91/104/92
f 101/108/93 92/97/93 93/109/93
f 102/110/94 93/109/94 94/98/94
f 95/111/95 102/110/95 94/98/95
f 88/100/96 96/112/96 39/113/96
f 109/114/97 100/115/97 101/108/97
f 110/116/98 101/108/98 102/110/98
f 103/117/99 110/116/99 102/110/99
f 96/112/100 104/118/100 39/119/100
f 105/120/101 96/112/101 97/105/101
f 98/121/102 105/120/102 97/105/102
f 107/122/103 98/121/103 99/107/103
f 100/115/104 107/122/104 99/107/104
f 106/123/105 113/124/105 105/120/105
f 115/125/106 106/123/106 107/122/106
f 108/126/107 115/125/107 107/122/107
f 117/127/108 108/126/108 109/114/108
f 118/128/109 109/114/109 110/116/109
f 111/129/110 118/128/110 110/116/110
f 104/118/111 112/130/111 39/131/111
f 105/120/112 112/130/112 104/118/112
f 126/132/113 117/127/113 118/128/113
f 119/133/114 126/132/114 118/128/114
f 112/130/115 120/134/115 39/135/115
f 121/136/116 112/130/116 113/124/116
f 114/137/117 121/136/117 113/124/117
f 123/138/118 114/137/118 115/125/118
f 116/139/119 123/138/119 115/125/119
f 125/140/120 116/139/120 117/127/120
f 131/141/121 122/142/121 123/138/121
f 124/143/122 131/141/122 123/138/122
f 133/144/123 124/143/123 125/140/123
f 134/145/124 125/140/124 126/132/124
f 127/146/125 134/145/125 126/132/125
f 120/134/126 128/147/126 39/148/126
f 121/136/127 128/147/127 120/134/127
f 122/142/128 129/149/128 121/136/128
f 135/150/129 142/151/129 134/145/129
f 128/147/130 136/152/130 39/153/130
f 137/154/131 128/147/131 129/149/131
f 130/155/132 137/154/132 129/149/132
f 139/156/133 130/155/133 131/141/133
f 132/157/134 139/156/134 131/141/134
f 141/158/135 132/157/135 133/144/135
f 142/151/136 133/144/136 134/145/136
f 147/159/137 138/160/137 139/156/137
f 140/161/138 147/159/138 139/156/138
f 149/162/139 140/161/139 141/158/139
f 150/163/140 141/158/140 142/151/140
f 143/164/141 150/163/141 142/151/141
f 136/152/142 144/165/142 39/166/142
f 137/154/143 144/165/143 136/152/143
f 138/160/144 145/167/144 137/154/144
f 151/168/145 158/169/145 150/163/145
f 144/165/146 152/170/146 39/171/146
f 153/172/147 144/165/147 145/167/147
f 146/173/148 153/172/148 145/167/148
f 155/174/149 146/173/149 147/159/149
f 148/175/150 155/174/150 147/159/150
f 157/176/151 148/175/151 149/162/151
f 158/169/152 149/162/152 150/163/152
f 156/177/153 163/178/153 155/174/153
f 165/179/154 156/177/154 157/176/154
f 166/180/155 157/176/155 158/169/155
f 159/181/156 166/180/156 158/169/156
f 152/170/157 160/182/157 39/183/157
f 153/172/158 160/182/158 152/170/158
f 154/184/159 161/185/159 153/172/159
f 163/178/160 154/184/160 155/174/160
f 160/182/161 168/186/161 39/187/161
f 161/185/162 168/186/162 160/182/162
f 162/188/163 169/189/163 161/185/163
f 171/190/164 162/188/164 163/178/164
f 164/191/165 171/190/165 163/178/165
f 173/192/166 164/191/166 165/179/166
f 174/193/167 165/179/167 166/180/167
f 167/194/168 174/193/168 166/180/168
f 172/195/169 179/196/169 171/190/169
f 181/197/170 172/195/170 173/192/170
f 182/198/171 173/192/171 174/193/171
f 175/199/172 182/198/172 174/193/172
f 168/186/173 176/200/173 39/201/173
f 169/189/174 176/200/174 168/186/174
f 170/202/175 177/203/175 169/189/175
f 179/196/176 170/202/176 171/190/176
f 177/204/177 184/205/177 176/206/177
f 178/207/178 185/208/178 177/204/178
f 187/209/179 178/207/179 179/210/179
f 180/211/180 187/209/180 179/210/180
f 189/212/181 180/211/181 181/213/181
f 190/214/182 181/213/182 182/215/182
f 183/216/183 190/214/183 182/215/183
f 176/206/184 184/205/184 39/217/184
f 197/218/185 188/219/185 189/212/185
f 198/220/186 189/212/186 190/214/186
f 191/221/187 198/220/187 190/214/187
f 184/205/188 192/222/188 39/223/188
f 185/208/189 192/222/189 184/205/189
f 186/224/190 193/225/190 185/208/190
f 195/226/191 186/224/191 187/209/191
f 188/219/192 195/226/192 187/209/192
f 194/227/193 201/228/193 193/225/193
f 203/229/194 194/227/194 195/226/194
f 196/230/195 203/229/195 195/226/195
f 205/231/196 196/230/196 197/218/196
f 206/232/197 197/218/197 198/220/197
f 199/233/198 206/232/198 198/220/198
f 192/222/199 200/234/199 39/235/199
f 193/225/200 200/234/200 192/222/200
f 214/236/201 205/231/201 206/232/201
f 207/237/202 214/236/202 206/232/202
f 200/234/203 208/238/203 39/239/203
f 201/228/204 208/238/204 200/234/204
f 202/240/205 209/241/205 201/228/205
f 211/242/206 202/240/206 203/229/206
f 204/243/207 211/242/207 203/229/207
f 205/231/208 212/244/208 204/243/208
f 210/245/209 217/246/209 209/241/209
f 219/247/210 210/245/210 211/242/210
f 212/244/211 219/247/211 211/242/211
f 213/248/212 220/249/212 212/244/212
f 222/250/213 213/248/213 214/236/213
f 215/251/214 222/250/214 214/236/214
f 208/238/215 216/252/215 39/253/215
f 209/241/216 216/252/216 208/238/216
f 230/254/217 221/255/217 222/250/217
f 223/256/218 230/254/218 222/250/218
f 216/252/219 224/257/219 39/258/219
f 217/246/220 224/257/220 216/252/220
f 218/259/221 225/260/221 217/246/221
f 227/261/222 218/259/222 219/247/222
f 220/249/223 227/261/223 219/247/223
f 221/255/224 228/262/224 220/249/224
f 235/263/225 226/264/225 227/261/225
f 228/262/226 235/263/226 227/261/226
f 229/265/227 236/266/227 228/262/227
f 238/267/228 229/265/228 230/254/228
f 231/268/229 238/267/229 230/254/229
f 224/257/230 232/269/230 39/270/230
f 225/260/231 232/269/231 224/257/231
f 226/264/232 233/271/232 225/260/232
f 6/3/233 238/267/233 239/272/233
f 232/269/234 240/4/234 39/273/234
f 1/8/235 232/269/235 233/271/235
f 2/9/236 233/271/236 234/274/236
f 241/11/237 234/274/237 235/263/237
f 3/13/238 235/263/238 236/266/238
f 4/15/239 236/266/239 237/275/239
f 5/2/240 237/275/240 238/267/240
f 14/1/1 13/17/1 5/2/1
f 8/7/3 7/5/3 240/4/3
f 2/9/4 9/22/4 8/7/4
f 10/10/5 9/22/5 2/9/5
f 11/12/6 10/10/6 241/11/6
f 12/14/7 11/12/7 3/13/7
f 5/2/8 13/17/8 12/14/8
f 21/16/9 20/25/9 12/14/9
f 22/18/10 21/16/10 13/17/10
f 16/21/12 15/19/12 7/5/12
f 9/22/13 17/23/13 16/21/13
f 10/10/14 18/24/14 17/23/14
f 11/12/15 19/28/15 18/24/15
f 20/25/16 19/28/16 11/12/16
f 25/26/17 24/37/17 16/21/17
f 26/27/18 25/26/18 17/23/18
f 19/28/19 27/40/19 26/27/19
f 28/29/20 27/40/20 19/28/20
f 29/30/21 28/29/21 20/25/21
f 30/31/22 29/30/22 21/16/22
f 16/21/24 24/37/24 23/32/24
f 37/34/25 36/41/25 28/29/25
f 30/31/26 38/47/26 37/34/26
f 24/37/28 32/38/28 31/35/28
f 25/26/29 33/43/29 32/38/29
f 34/39/30 33/43/30 25/26/30
f 27/40/31 35/44/31 34/39/31
f 36/41/32 35/44/32 27/40/32
f 43/42/33 42/56/33 33/43/33
f 35/44/34 44/58/34 43/42/34
f 45/45/35 44/58/35 35/44/35
f 46/46/36 45/45/36 36/41/36
f 38/47/37 47/51/37 46/46/37
f 41/50/39 40/48/39 31/35/39
f 33/43/40 42/56/40 41/50/40
f 47/51/41 55/64/41 54/52/41
f 49/55/43 48/53/43 40/48/43
f 42/56/44 50/68/44 49/55/44
f 51/57/45 50/68/45 42/56/45
f 44/58/46 52/60/46 51/57/46
f 53/59/47 52/60/47 44/58/47
f 54/52/48 53/59/48 45/45/48
f 52/60/49 60/62/49 59/61/49
f 53/59/50 61/74/50 60/62/50
f 62/63/51 61/74/51 53/59/51
f 55/64/52 63/77/52 62/63/52
f 57/67/54 56/65/54 48/53/54
f 50/68/55 58/71/55 57/67/55
f 59/61/56 58/71/56 50/68/56
f 57/67/58 65/72/58 64/69/58
f 58/71/59 66/85/59 65/72/59
f 67/73/60 66/85/60 58/71/60
f 60/62/61 68/75/61 67/73/61
f 61/74/62 69/79/62 68/75/62
f 70/76/63 69/79/63 61/74/63
f 63/77/64 71/82/64 70/76/64
f 68/75/65 76/80/65 75/78/65
f 69/79/66 77/90/66 76/80/66
f 78/81/67 77/90/67 69/79/67
f 71/82/68 79/93/68 78/81/68
f 65/72/70 73/86/70 72/83/70
f 66/85/71 74/88/71 73/86/71
f 75/78/72 74/88/72 66/85/72
f 81/87/73 80/94/73 72/83/73
f 74/88/74 82/102/74 81/87/74
f 83/89/75 82/102/75 74/88/75
f 76/80/76 84/91/76 83/89/76
f 77/90/77 85/96/77 84/91/77
f 86/92/78 85/96/78 77/90/78
f 79/93/79 87/99/79 86/92/79
f 85/96/81 93/109/81 92/97/81
f 94/98/82 93/109/82 85/96/82
f 87/99/83 95/111/83 94/98/83
f 81/87/85 89/103/85 88/100/85
f 82/102/86 90/106/86 89/103/86
f 91/104/87 90/106/87 82/102/87
f 84/91/88 92/97/88 91/104/88
f 97/105/89 96/112/89 88/100/89
f 90/106/90 98/121/90 97/105/90
f 99/107/91 98/121/91 90/106/91
f 92/97/92 100/115/92 99/107/92
f 101/108/93 100/115/93 92/97/93
f 102/110/94 101/108/94 93/109/94
f 95/111/95 103/117/95 102/110/95
f 109/114/97 108/126/97 100/115/97
f 110/116/98 109/114/98 101/108/98
f 103/117/99 111/129/99 110/116/99
f 105/120/101 104/118/101 96/112/101
f 98/121/102 106/123/102 105/120/102
f 107/122/103 106/123/103 98/121/103
f 100/115/104 108/126/104 107/122/104
f 106/123/105 114/137/105 113/124/105
f 115/125/106 114/137/106 106/123/106
f 108/126/107 116/139/107 115/125/107
f 117/127/108 116/139/108 108/126/108
f 118/128/109 117/127/109 109/114/109
f 111/129/110 119/133/110 118/128/110
f 105/120/112 113/124/112 112/130/112
f 126/132/113 125/140/113 117/127/113
f 119/133/114 127/146/114 126/132/114
f 121/136/116 120/134/116 112/130/116
f 114/137/117 122/142/117 121/136/117
f 123/138/118 122/142/118 114/137/118
f 116/139/119 124/143/119 123/138/119
f 125/140/120 124/143/120 116/139/120
f 131/141/121 130/155/121 122/142/121
f 124/143/122 132/157/122 131/141/122
f 133/144/123 132/157/123 124/143/123
f 134/145/124 133/144/124 125/140/124
f 127/146/125 135/150/125 134/145/125
f 121/136/127 129/149/127 128/147/127
f 122/142/128 130/155/128 129/149/128
f 135/150/129 143/164/129 142/151/129
f 137/154/131 136/152/131 128/147/131
f 130/155/132 138/160/132 137/154/132
f 139/156/133 138/160/133 130/155/133
f 132/157/134 140/161/134 139/156/134
f 141/158/135 140/161/135 132/157/135
f 142/151/136 141/158/136 133/144/136
f 147/159/137 146/173/137 138/160/137
f 140/161/138 148/175/138 147/159/138
f 149/162/139 148/175/139 140/161/139
f 150/163/140 149/162/140 141/158/140
f 143/164/141 151/168/141 150/163/141
f 137/154/143 145/167/143 144/165/143
f 138/160/144 146/173/144 145/167/144
f 151/168/145 159/181/145 158/169/145
f 153/172/147 152/170/147 144/165/147
f 146/173/148 154/184/148 153/172/148
f 155/174/149 154/184/149 146/173/149
f 148/175/150 156/177/150 155/174/150
f 157/176/151 156/177/151 148/175/151
f 158/169/152 157/176/152 149/162/152
f 156/177/153 164/191/153 163/178/153
f 165/179/154 164/191/154 156/177/154
f 166/180/155 165/179/155 157/176/155
f 159/181/156 167/194/156 166/180/156
f 153/172/158 161/185/158 160/182/158
f 154/184/159 162/188/159 161/185/159
f 163/178/160 162/188/160 154/184/160
f 161/185/162 169/189/162 168/186/162
f 162/188/163 170/202/163 169/189/163
f 171/190/164 170/202/164 162/188/164
f 164/191/165 172/195/165 171/190/165
f 173/192/166 172/195/166 164/191/166
f 174/193/167 173/192/167 165/179/167
f 167/194/168 175/199/168 174/193/168
f 172/195/169 180/276/169 179/196/169
f 181/197/170 180/276/170 172/195/170
f 182/198/171 181/197/171 173/192/171
f 175/199/172 183/277/172 182/198/172
f 169/189/174 177/203/174 176/200/174
f 170/202/175 178/278/175 177/203/175
f 179/196/176 178/278/176 170/202/176
f 177/204/177 185/208/177 184/205/177
f 178/207/178 186/224/178 185/208/178
f 187/209/179 186/224/179 178/207/179
f 180/211/180 188/219/180 187/209/180
f 189/212/181 188/219/181 180/211/181
f 190/214/182 189/212/182 181/213/182
f 183/216/183 191/221/183 190/214/183
f 197/218/185 196/230/185 188/219/185
f 198/220/241 197/218/241 189/212/241
f 191/221/187 199/233/187 198/220/187
f 185/208/189 193/225/189 192/222/189
f 186/224/190 194/227/190 193/225/190
f 195/226/191 194/227/191 186/224/191
f 188/219/192 196/230/192 195/226/192
f 194/227/193 202/240/193 201/228/193
f 203/229/194 202/240/194 194/227/194
f 196/230/195 204/243/195 203/229/195
f 205/231/196 204/243/196 196/230/196
f 206/232/197 205/231/197 197/218/197
f 199/233/198 207/237/198 206/232/198
f 193/225/200 201/228/200 200/234/200
f 214/236/201 213/248/201 205/231/201
f 207/237/202 215/251/202 214/236/202
f 201/228/204 209/241/204 208/238/204
f 202/240/205 210/245/205 209/241/205
f 211/242/206 210/245/206 202/240/206
f 204/243/207 212/244/207 211/242/207
f 205/231/208 213/248/208 212/244/208
f 210/245/209 218/259/209 217/246/209
f 219/247/210 218/259/210 210/245/210
f 212/244/211 220/249/211 219/247/211
f 213/248/212 221/255/212 220/249/212
f 222/250/213 221/255/213 213/248/213
f 215/251/214 223/256/214 222/250/214
f 209/241/216 217/246/216 216/252/216
f 230/254/217 229/265/217 221/255/217
f 223/256/218 231/268/218 230/254/218
f 217/246/220 225/260/220 224/257/220
f 218/259/221 226/264/221 225/260/221
f 227/261/222 226/264/222 218/259/222
f 220/249/223 228/262/223 227/261/223
f 221/255/224 229/265/224 228/262/224
f 235/263/225 234/274/225 226/264/225
f 228/262/226 236/266/226 235/263/226
f 229/265/227 237/275/227 236/266/227
f 238/267/228 237/275/228 229/265/228
f 231/268/229 239/272/229 238/267/229
f 225/260/231 233/271/231 232/269/231
f 226/264/232 234/274/232 233/271/232
f 6/3/233 5/2/233 238/267/233
f 1/8/235 240/4/235 232/269/235
f 2/9/236 1/8/236 233/271/236
f 241/11/237 2/9/237 234/274/237
f 3/13/238 241/11/238 235/263/238
f 4/15/239 3/13/239 236/266/239
f 5/2/240 4/15/240 237/275/240
