# Blender 4.1.0
# www.blender.org
mtllib PlayerFace.mtl
o Cube.001
v 0.200000 0.585792 -0.259310
v 0.200000 0.185792 -0.216877
v 0.175050 0.585792 0.081530
v 0.200000 0.185792 0.121018
v -0.200000 0.585792 -0.259310
v -0.200000 0.185792 -0.216877
v -0.175050 0.585792 0.081530
v -0.200000 0.185792 0.121018
v -0.000000 0.185792 -0.216877
v 0.000000 0.585792 0.121018
v 0.000000 0.185792 0.121018
v -0.000000 0.585792 -0.259310
v 0.200000 0.385792 -0.278982
v -0.200000 0.385792 0.150414
v 0.200000 0.385792 0.150414
v -0.200000 0.385792 -0.278982
v -0.000000 0.385792 -0.278982
v 0.000000 0.405389 0.271496
v -0.200000 0.185792 -0.078982
v 0.200000 0.585792 -0.078982
v -0.200000 0.585792 -0.078982
v 0.200000 0.185792 -0.078982
v -0.000000 0.185792 -0.078982
v -0.000000 0.585792 -0.078982
v 0.200000 0.385792 -0.078982
v -0.200000 0.385792 -0.078982
vn -0.0000 1.0000 -0.0000
vn -0.4667 0.5665 0.6792
vn -1.0000 -0.0000 -0.0000
vn -0.0000 -1.0000 -0.0000
vn 0.9923 0.1238 -0.0000
vn -0.0000 0.0979 -0.9952
vn 0.4667 0.5665 0.6792
vn -0.0000 -0.1454 0.9894
vn -0.0000 -0.2966 -0.9550
vn 1.0000 -0.0000 -0.0000
vn -0.9923 0.1238 -0.0000
vn -0.2068 0.3416 0.9168
vn 0.9881 -0.0000 0.1536
vn 0.2068 0.3416 0.9168
vn 0.4058 -0.5166 0.7539
vn -0.4058 -0.5166 0.7539
vn -0.9881 -0.0000 0.1536
vt 0.750000 0.625000
vt 0.875000 0.750000
vt 0.750000 0.750000
vt 0.625000 0.875000
vt 0.500000 1.000000
vt 0.500000 0.875000
vt 0.500000 0.125000
vt 0.625000 0.250000
vt 0.500000 0.250000
vt 0.375000 0.625000
vt 0.250000 0.750000
vt 0.250000 0.625000
vt 0.500000 0.625000
vt 0.625000 0.750000
vt 0.500000 0.750000
vt 0.625000 0.375000
vt 0.500000 0.500000
vt 0.500000 0.375000
vt 0.125000 0.750000
vt 0.125000 0.625000
vt 0.625000 0.625000
vt 0.375000 0.875000
vt 0.375000 0.750000
vt 0.375000 0.375000
vt 0.375000 0.250000
vt 0.375000 0.500000
vt 0.375000 0.125000
vt 0.375000 1.000000
vt 0.375000 0.000000
vt 0.750000 0.500000
vt 0.625000 0.500000
vt 0.250000 0.500000
vt 0.125000 0.500000
vt 0.625000 0.000000
vt 0.500000 0.000000
vt 0.875000 0.500000
vt 0.875000 0.625000
vt 0.625000 1.000000
vt 0.625000 0.125000
s 0
usemtl Material.004
f 24/1/1 7/2/1 10/3/1
f 10/4/2 14/5/2 18/6/2
f 26/7/3 5/8/3 16/9/3
f 22/10/4 11/11/4 23/12/4
f 25/13/5 3/14/5 15/15/5
f 12/16/6 13/17/6 17/18/6
f 5/8/6 17/18/6 16/9/6
f 23/12/4 8/19/4 19/20/4
f 15/15/7 10/4/7 18/6/7
f 24/1/1 3/14/1 20/21/1
f 15/15/8 11/22/8 4/23/8
f 16/9/9 9/24/9 6/25/9
f 17/18/9 2/26/9 9/24/9
f 25/13/10 4/23/10 22/10/10
f 26/7/3 6/25/3 19/27/3
f 11/22/8 14/5/8 8/28/8
f 8/29/3 26/7/3 19/27/3
f 2/26/10 25/13/10 22/10/10
f 12/30/1 20/21/1 1/31/1
f 9/32/4 19/20/4 6/33/4
f 1/31/10 25/13/10 13/17/10
f 2/26/4 23/12/4 9/32/4
f 7/34/11 26/7/11 14/35/11
f 5/36/1 24/1/1 12/30/1
f 24/1/1 21/37/1 7/2/1
f 10/4/12 7/38/12 14/5/12
f 26/7/3 21/39/3 5/8/3
f 22/10/4 4/23/4 11/11/4
f 25/13/13 20/21/13 3/14/13
f 12/16/6 1/31/6 13/17/6
f 5/8/6 12/16/6 17/18/6
f 23/12/4 11/11/4 8/19/4
f 15/15/14 3/14/14 10/4/14
f 24/1/1 10/3/1 3/14/1
f 15/15/15 18/6/15 11/22/15
f 16/9/9 17/18/9 9/24/9
f 17/18/9 13/17/9 2/26/9
f 25/13/10 15/15/10 4/23/10
f 26/7/3 16/9/3 6/25/3
f 11/22/16 18/6/16 14/5/16
f 8/29/3 14/35/3 26/7/3
f 2/26/10 13/17/10 25/13/10
f 12/30/1 24/1/1 20/21/1
f 9/32/4 23/12/4 19/20/4
f 1/31/10 20/21/10 25/13/10
f 2/26/4 22/10/4 23/12/4
f 7/34/17 21/39/17 26/7/17
f 5/36/1 21/37/1 24/1/1
