# Blender 4.1.1
# www.blender.org
mtllib WarpHole.mtl
o Cube
v -0.701834 0.701834 1.000000
v -0.701834 0.701834 -0.071931
v -0.701834 -0.701834 1.000000
v -0.701834 -0.701834 -0.071931
v -1.268849 1.268849 -1.000000
v -1.268849 -1.268849 -1.000000
v 0.701834 0.701834 1.000000
v 0.701834 0.701834 -0.071931
v 0.701834 -0.701834 1.000000
v 0.701834 -0.701834 -0.071931
v 1.268849 1.268849 -1.000000
v 1.268849 -1.268849 -1.000000
v -0.964949 -0.964949 -1.000000
v 0.964949 0.964949 -1.000000
v -0.964949 0.964949 -1.000000
v 0.964949 -0.964949 -1.000000
vn -0.0000 0.9621 0.2728
vn -0.0000 -0.0000 -1.0000
vn 0.9621 -0.0000 0.2728
vn -0.0000 -0.9621 0.2728
vn -0.9621 -0.0000 0.2728
vn -0.0000 -0.0000 1.0000
vn -0.0000 -0.9621 -0.2728
vn -0.9621 -0.0000 -0.2728
vn -0.0000 0.9621 -0.2728
vn 0.9621 -0.0000 -0.2728
vt 0.875000 0.500000
vt 0.625000 0.750000
vt 0.625000 0.500000
vt 0.625000 1.000000
vt 0.595061 0.779939
vt 0.375000 1.000000
vt 0.404939 0.779939
vt 0.404939 0.970061
vt 0.625000 0.000000
vt 0.375000 0.250000
vt 0.375000 0.000000
vt 0.375000 0.500000
vt 0.125000 0.750000
vt 0.125000 0.500000
vt 0.375000 0.750000
vt 0.625000 0.250000
vt 0.625000 0.616009
vt 0.875000 0.616009
vt 0.375000 0.133991
vt 0.125000 0.616009
vt 0.375000 0.616009
vt 0.875000 0.750000
vt 0.595061 0.970061
vt 0.625000 0.133991
s 0
usemtl Material
f 7/1/1 5/2/1 1/3/1
f 5/2/2 11/4/2 15/5/2
f 12/6/2 13/7/2 16/8/2
f 11/9/3 9/10/3 12/11/3
f 3/12/4 12/13/4 9/14/4
f 1/3/5 6/15/5 3/12/5
f 7/16/6 3/12/6 9/10/6
f 8/1/7 15/17/7 14/18/7
f 8/16/8 16/19/8 10/10/8
f 4/12/9 16/20/9 13/21/9
f 4/12/10 15/17/10 2/3/10
f 4/12/2 8/16/2 10/10/2
f 7/1/1 11/22/1 5/2/1
f 13/7/2 6/15/2 5/2/2
f 11/4/2 12/6/2 16/8/2
f 11/4/2 16/8/2 14/23/2
f 15/5/2 13/7/2 5/2/2
f 11/4/2 14/23/2 15/5/2
f 12/6/2 6/15/2 13/7/2
f 11/9/3 7/16/3 9/10/3
f 3/12/4 6/15/4 12/13/4
f 1/3/5 5/2/5 6/15/5
f 7/16/6 1/3/6 3/12/6
f 8/1/7 2/3/7 15/17/7
f 8/16/8 14/24/8 16/19/8
f 4/12/9 10/14/9 16/20/9
f 4/12/10 13/21/10 15/17/10
f 4/12/2 2/3/2 8/16/2
