# Blender 4.1.1
# www.blender.org
mtllib Goal.mtl
o トーラス
v -1.373834 -0.536766 0.000000
v -1.293357 -0.505323 -0.208592
v -1.000000 -0.000000 -0.250000
v -0.598934 0.000366 0.008728
v -0.545661 0.000366 0.137341
v -0.598934 0.000366 0.265955
v -1.000000 0.000000 0.250000
v -1.293357 -0.505323 0.208592
v -1.154849 0.478354 -0.000000
v -1.087200 0.450333 -0.176777
v -0.923880 0.382683 -0.250000
v -0.760559 0.315034 -0.176777
v -0.692910 0.287013 -0.000000
v -0.760559 0.315034 0.176777
v -0.923880 0.382683 0.250000
v -1.087200 0.450333 0.176777
v -0.883883 0.883884 -0.000000
v -0.832107 0.832107 -0.176777
v -0.707107 0.707107 -0.250000
v -0.582107 0.582107 -0.176777
v -0.530330 0.530330 -0.000000
v -0.582107 0.582107 0.176777
v -0.707107 0.707107 0.250000
v -0.832107 0.832107 0.176777
v -0.478355 1.154849 -0.000000
v -0.450333 1.087200 -0.176777
v -0.382684 0.923879 -0.250000
v -0.315034 0.760559 -0.176777
v -0.287013 0.692910 -0.000000
v -0.315034 0.760559 0.176777
v -0.382684 0.923879 0.250000
v -0.450333 1.087200 0.176777
v -0.536766 1.373834 -0.000000
v -0.505323 1.293357 -0.208592
v -0.000000 1.000000 -0.250000
v -0.000000 0.599300 0.008728
v -0.000000 0.546027 0.137341
v -0.000000 0.599300 0.265955
v -0.000000 1.000000 0.250000
v -0.505323 1.293357 0.208592
v 0.478354 1.154849 -0.000000
v 0.450333 1.087200 -0.176777
v 0.382684 0.923880 -0.250000
v 0.315034 0.760559 -0.176777
v 0.287013 0.692910 -0.000000
v 0.315034 0.760559 0.176777
v 0.382684 0.923880 0.250000
v 0.450333 1.087200 0.176777
v 0.883884 0.883883 -0.000000
v 0.832107 0.832107 -0.176777
v 0.707107 0.707107 -0.250000
v 0.582107 0.582107 -0.176777
v 0.530330 0.530330 -0.000000
v 0.582107 0.582107 0.176777
v 0.707107 0.707107 0.250000
v 0.832107 0.832107 0.176777
v 1.154849 0.478354 -0.000000
v 1.087200 0.450333 -0.176777
v 0.923880 0.382683 -0.250000
v 0.760559 0.315034 -0.176777
v 0.692910 0.287013 -0.000000
v 0.760559 0.315034 0.176777
v 0.923880 0.382683 0.250000
v 1.087200 0.450333 0.176777
v 1.373834 0.536766 -0.000000
v 1.293357 0.505323 -0.208592
v 1.000000 0.000000 -0.250000
v 0.598934 0.000366 0.008728
v 0.545661 0.000366 0.137341
v 0.598934 0.000366 0.265955
v 1.000000 0.000000 0.250000
v 1.293357 0.505323 0.208592
v 1.154850 -0.478354 0.000000
v 1.087200 -0.450332 -0.176777
v 0.923880 -0.382683 -0.250000
v 0.760559 -0.315034 -0.176777
v 0.692910 -0.287012 0.000000
v 0.760559 -0.315034 0.176777
v 0.923880 -0.382683 0.250000
v 1.087200 -0.450332 0.176777
v 0.883884 -0.883883 0.000000
v 0.832107 -0.832107 -0.176777
v 0.707107 -0.707107 -0.250000
v 0.582107 -0.582107 -0.176777
v 0.530330 -0.530330 0.000000
v 0.582107 -0.582107 0.176777
v 0.707107 -0.707107 0.250000
v 0.832107 -0.832107 0.176777
v 0.478354 -1.154849 0.000000
v 0.450333 -1.087200 -0.176777
v 0.382684 -0.923880 -0.250000
v 0.315034 -0.760559 -0.176777
v 0.287013 -0.692910 0.000000
v 0.315034 -0.760559 0.176777
v 0.382684 -0.923880 0.250000
v 0.450333 -1.087200 0.176777
v 0.536766 -1.373834 0.000000
v 0.505323 -1.293357 -0.208592
v -0.000000 -1.000000 -0.250000
v -0.000000 -0.586827 -0.003876
v -0.000000 -0.545294 0.137341
v -0.000000 -0.598568 0.265955
v -0.000000 -1.000000 0.250000
v 0.505323 -1.293357 0.208592
v -0.478355 -1.154849 0.000000
v -0.450333 -1.087200 -0.176777
v -0.382799 -0.924145 -0.258710
v -0.305284 -0.736333 -0.203676
v -0.287013 -0.692910 0.000000
v -0.315034 -0.760559 0.176777
v -0.382684 -0.923879 0.250000
v -0.450333 -1.087200 0.176777
v -0.883883 -0.883884 0.000000
v -0.832106 -0.832107 -0.176777
v -0.707543 -0.707372 -0.288123
v -0.582106 -0.582107 -0.176777
v -0.530330 -0.530330 0.000000
v -0.582106 -0.582107 0.176777
v -0.707106 -0.707107 0.250000
v -0.832106 -0.832107 0.176777
v -1.154849 -0.478355 0.000000
v -1.087200 -0.450333 -0.176777
v -0.923879 -0.382684 -0.250000
v -0.760559 -0.315034 -0.176777
v -0.692910 -0.287013 0.000000
v -0.760559 -0.315034 0.176777
v -0.923879 -0.382684 0.250000
v -1.087200 -0.450333 0.176777
vn -0.7382 -0.6746 -0.0000
vn -0.4203 -0.5934 -0.6865
vn 0.0671 0.0281 -0.9974
vn 0.8462 0.0002 -0.5329
vn 0.9977 0.0005 0.0681
vn 0.5976 0.0005 0.8018
vn -0.1090 0.0266 0.9937
vn -0.4203 -0.5934 0.6865
vn -0.9188 0.3948 -0.0000
vn -0.6675 0.2884 -0.6864
vn -0.0441 0.0183 -0.9989
vn 0.6010 -0.2128 -0.7704
vn 0.9969 -0.0457 -0.0637
vn 0.5777 -0.0296 0.8157
vn -0.0441 0.0183 0.9989
vn -0.6675 0.2884 0.6864
vn -0.7071 0.7071 -0.0000
vn -0.5158 0.5158 -0.6841
vn -0.0338 0.0338 -0.9989
vn 0.4820 -0.4820 -0.7317
vn 0.7071 -0.7071 -0.0000
vn 0.4820 -0.4820 0.7317
vn -0.0338 0.0338 0.9989
vn -0.5158 0.5158 0.6841
vn -0.9722 0.2342 -0.0000
vn -0.5036 0.2334 -0.8318
vn -0.0183 0.0441 -0.9989
vn 0.2130 -0.6011 -0.7703
vn 0.0466 -0.9969 -0.0636
vn 0.0299 -0.5779 0.8155
vn -0.0183 0.0441 0.9989
vn -0.5036 0.2334 0.8318
vn -0.6746 0.7382 -0.0000
vn -0.5934 0.4203 -0.6865
vn 0.0281 -0.0672 -0.9973
vn -0.0000 -0.8462 -0.5328
vn -0.0000 -0.9977 0.0682
vn -0.0000 -0.5974 0.8020
vn 0.0266 0.1090 0.9937
vn -0.5934 0.4203 0.6865
vn 0.3948 0.9188 -0.0000
vn 0.2884 0.6675 -0.6864
vn 0.0183 0.0441 -0.9989
vn -0.2130 -0.6011 -0.7703
vn -0.0466 -0.9969 -0.0637
vn -0.0299 -0.5779 0.8155
vn 0.0183 0.0441 0.9989
vn 0.2884 0.6675 0.6864
vn 0.7071 0.7071 -0.0000
vn 0.5158 0.5158 -0.6841
vn 0.0337 0.0338 -0.9989
vn -0.4820 -0.4820 -0.7317
vn -0.7071 -0.7071 -0.0000
vn -0.4820 -0.4820 0.7317
vn 0.0338 0.0338 0.9989
vn 0.5158 0.5158 0.6841
vn 0.2342 0.9722 -0.0000
vn 0.2334 0.5036 -0.8318
vn 0.0441 0.0183 -0.9989
vn -0.6010 -0.2128 -0.7704
vn -0.9969 -0.0457 -0.0637
vn -0.5777 -0.0296 0.8157
vn 0.0441 0.0183 0.9989
vn 0.2334 0.5036 0.8318
vn 0.7382 0.6746 -0.0000
vn 0.4203 0.5934 -0.6865
vn -0.0671 -0.0281 -0.9974
vn -0.8462 0.0002 -0.5329
vn -0.9977 0.0005 0.0681
vn -0.5976 0.0005 0.8018
vn 0.1090 -0.0267 0.9937
vn 0.4203 0.5934 0.6865
vn 0.9188 -0.3948 -0.0000
vn 0.6675 -0.2884 -0.6864
vn 0.0441 -0.0183 -0.9989
vn -0.6011 0.2128 -0.7704
vn -0.9969 0.0462 -0.0636
vn -0.5779 0.0299 0.8156
vn 0.0441 -0.0183 0.9989
vn 0.6675 -0.2884 0.6864
vn 0.5158 -0.5158 -0.6841
vn 0.0337 -0.0338 -0.9989
vn -0.4820 0.4820 -0.7317
vn -0.4820 0.4820 0.7317
vn 0.0338 -0.0338 0.9989
vn 0.5158 -0.5158 0.6841
vn 0.9722 -0.2342 -0.0000
vn 0.5036 -0.2334 -0.8318
vn 0.0183 -0.0441 -0.9989
vn -0.1999 0.5980 -0.7761
vn -0.0269 0.9982 -0.0528
vn -0.0295 0.5777 0.8157
vn 0.0183 -0.0441 0.9989
vn 0.5036 -0.2334 0.8318
vn 0.6746 -0.7382 -0.0000
vn 0.5934 -0.4203 -0.6865
vn -0.0101 0.0407 -0.9991
vn 0.0144 0.8763 -0.4816
vn -0.0000 0.9943 0.1062
vn -0.0000 0.5977 0.8017
vn -0.0266 -0.1089 0.9937
vn 0.5934 -0.4203 0.6865
vn -0.3948 -0.9188 -0.0000
vn -0.2897 -0.6788 -0.6748
vn -0.0365 -0.1104 -0.9932
vn 0.1646 0.6123 -0.7733
vn 0.0179 0.9997 0.0189
vn 0.0295 0.5777 0.8157
vn -0.0183 -0.0441 0.9989
vn -0.2884 -0.6675 0.6864
vn -0.5444 -0.5403 -0.6416
vn -0.0536 -0.0381 -0.9978
vn 0.4994 0.5322 -0.6837
vn 0.4820 0.4820 0.7317
vn -0.0338 -0.0338 0.9989
vn -0.5158 -0.5158 0.6841
vn -0.2342 -0.9722 -0.0000
vn -0.2334 -0.5036 -0.8318
vn -0.0521 -0.0067 -0.9986
vn 0.6011 0.2128 -0.7704
vn 0.9969 0.0462 -0.0636
vn 0.5779 0.0299 0.8156
vn -0.0441 -0.0183 0.9989
vn -0.2334 -0.5036 0.8318
vt 0.562500 0.500000
vt 0.500000 0.625000
vt 0.500000 0.500000
vt 0.562500 0.625000
vt 0.500000 0.750000
vt 0.562500 0.875000
vt 0.500000 0.875000
vt 0.562500 1.000000
vt 0.500000 1.000000
vt 0.500000 0.000000
vt 0.562500 0.125000
vt 0.500000 0.125000
vt 0.500000 0.250000
vt 0.562500 0.375000
vt 0.500000 0.375000
vt 0.625000 0.625000
vt 0.562500 0.750000
vt 0.625000 0.750000
vt 0.625000 0.875000
vt 0.625000 0.000000
vt 0.562500 0.000000
vt 0.625000 0.125000
vt 0.562500 0.250000
vt 0.625000 0.375000
vt 0.687500 0.500000
vt 0.625000 0.500000
vt 0.687500 0.750000
vt 0.687500 0.875000
vt 0.687500 1.000000
vt 0.625000 1.000000
vt 0.687500 0.000000
vt 0.687500 0.125000
vt 0.625000 0.250000
vt 0.687500 0.250000
vt 0.750000 0.625000
vt 0.687500 0.625000
vt 0.750000 0.750000
vt 0.750000 0.875000
vt 0.750000 0.000000
vt 0.750000 0.250000
vt 0.687500 0.375000
vt 0.750000 0.375000
vt 0.812500 0.500000
vt 0.750000 0.500000
vt 0.812500 0.625000
vt 0.812500 0.875000
vt 0.812500 1.000000
vt 0.750000 1.000000
vt 0.812500 0.125000
vt 0.750000 0.125000
vt 0.812500 0.375000
vt 0.875000 0.500000
vt 0.875000 0.625000
vt 0.812500 0.750000
vt 0.875000 0.750000
vt 0.875000 0.875000
vt 0.812500 0.000000
vt 0.875000 0.125000
vt 0.812500 0.250000
vt 0.875000 0.375000
vt 0.937500 0.500000
vt 0.937500 0.625000
vt 0.937500 0.875000
vt 0.875000 1.000000
vt 0.937500 0.000000
vt 0.875000 0.000000
vt 0.937500 0.125000
vt 0.875000 0.250000
vt 0.937500 0.375000
vt 1.000000 0.625000
vt 1.000000 0.750000
vt 0.937500 0.750000
vt 1.000000 0.875000
vt 0.937500 1.000000
vt 1.000000 0.000000
vt 1.000000 0.250000
vt 0.937500 0.250000
vt 1.000000 0.375000
vt 0.062500 0.500000
vt 0.000000 0.625000
vt 0.000000 0.500000
vt 0.062500 0.625000
vt 0.000000 0.750000
vt 0.062500 0.875000
vt 0.000000 0.875000
vt 0.062500 1.000000
vt 0.000000 1.000000
vt 0.000000 0.000000
vt 0.062500 0.125000
vt 0.000000 0.125000
vt 0.000000 0.250000
vt 0.062500 0.375000
vt 0.000000 0.375000
vt 0.125000 0.500000
vt 0.125000 0.750000
vt 0.062500 0.750000
vt 0.125000 0.875000
vt 0.125000 0.000000
vt 0.062500 0.000000
vt 0.125000 0.125000
vt 0.062500 0.250000
vt 0.125000 0.250000
vt 0.187500 0.500000
vt 0.125000 0.625000
vt 0.187500 0.750000
vt 0.187500 0.875000
vt 0.125000 1.000000
vt 0.187500 0.000000
vt 0.187500 0.125000
vt 0.187500 0.250000
vt 0.125000 0.375000
vt 0.187500 0.375000
vt 0.250000 0.625000
vt 0.187500 0.625000
vt 0.250000 0.750000
vt 0.250000 0.875000
vt 0.187500 1.000000
vt 0.250000 0.000000
vt 0.250000 0.250000
vt 0.250000 0.375000
vt 0.312500 0.500000
vt 0.250000 0.500000
vt 0.312500 0.625000
vt 0.312500 0.875000
vt 0.312500 1.000000
vt 0.250000 1.000000
vt 0.312500 0.125000
vt 0.250000 0.125000
vt 0.312500 0.375000
vt 0.375000 0.625000
vt 0.312500 0.750000
vt 0.375000 0.875000
vt 0.375000 0.000000
vt 0.312500 0.000000
vt 0.375000 0.125000
vt 0.312500 0.250000
vt 0.375000 0.250000
vt 0.375000 0.375000
vt 0.375000 0.500000
vt 0.437500 0.625000
vt 0.437500 0.750000
vt 0.375000 0.750000
vt 0.437500 1.000000
vt 0.375000 1.000000
vt 0.437500 0.000000
vt 0.437500 0.125000
vt 0.437500 0.250000
vt 0.437500 0.375000
vt 0.437500 0.500000
vt 0.437500 0.875000
vt 1.000000 0.500000
vt 1.000000 1.000000
vt 1.000000 0.125000
s 1
usemtl マテリアル
f 9/1/9 2/2/2 1/3/1
f 10/4/10 3/5/3 2/2/2
f 3/5/3 12/6/12 4/7/4
f 4/7/4 13/8/13 5/9/5
f 5/10/5 14/11/14 6/12/6
f 14/11/14 7/13/7 6/12/6
f 7/13/7 16/14/16 8/15/8
f 8/15/8 9/1/9 1/3/1
f 9/1/9 18/16/18 10/4/10
f 18/16/18 11/17/11 10/4/10
f 19/18/19 12/6/12 11/17/11
f 20/19/20 13/8/13 12/6/12
f 21/20/21 14/11/14 13/21/13
f 22/22/22 15/23/15 14/11/14
f 15/23/15 24/24/24 16/14/16
f 24/24/24 9/1/9 16/14/16
f 25/25/25 18/16/18 17/26/17
f 18/16/18 27/27/27 19/18/19
f 19/18/19 28/28/28 20/19/20
f 20/19/20 29/29/29 21/30/21
f 29/31/29 22/22/22 21/20/21
f 30/32/30 23/33/23 22/22/22
f 31/34/31 24/24/24 23/33/23
f 24/24/24 25/25/25 17/26/17
f 25/25/25 34/35/34 26/36/26
f 26/36/26 35/37/35 27/27/27
f 35/37/35 28/28/28 27/27/27
f 36/38/36 29/29/29 28/28/28
f 37/39/37 30/32/30 29/31/29
f 30/32/30 39/40/39 31/34/31
f 39/40/39 32/41/32 31/34/31
f 40/42/40 25/25/25 32/41/32
f 41/43/41 34/35/34 33/44/33
f 42/45/42 35/37/35 34/35/34
f 35/37/35 44/46/44 36/38/36
f 36/38/36 45/47/45 37/48/37
f 37/39/37 46/49/46 38/50/38
f 46/49/46 39/40/39 38/50/38
f 39/40/39 48/51/48 40/42/40
f 40/42/40 41/43/41 33/44/33
f 49/52/49 42/45/42 41/43/41
f 50/53/50 43/54/43 42/45/42
f 51/55/51 44/46/44 43/54/43
f 52/56/52 45/47/45 44/46/44
f 45/57/45 54/58/54 46/49/46
f 54/58/54 47/59/47 46/49/46
f 47/59/47 56/60/56 48/51/48
f 56/60/56 41/43/41 48/51/48
f 57/61/57 50/53/50 49/52/49
f 58/62/58 51/55/51 50/53/50
f 51/55/51 60/63/60 52/56/52
f 60/63/60 53/64/53 52/56/52
f 61/65/61 54/58/54 53/66/53
f 62/67/62 55/68/55 54/58/54
f 55/68/55 64/69/64 56/60/56
f 64/69/64 49/52/49 56/60/56
f 57/61/57 66/70/66 58/62/58
f 58/62/58 67/71/67 59/72/59
f 67/71/67 60/63/60 59/72/59
f 68/73/68 61/74/61 60/63/60
f 69/75/69 62/67/62 61/65/61
f 62/67/62 71/76/71 63/77/63
f 71/76/71 64/69/64 63/77/63
f 72/78/72 57/61/57 64/69/64
f 73/79/73 66/80/66 65/81/65
f 74/82/74 67/83/67 66/80/66
f 67/83/67 76/84/76 68/85/68
f 68/85/68 77/86/77 69/87/69
f 69/88/69 78/89/78 70/90/70
f 78/89/78 71/91/71 70/90/70
f 71/91/71 80/92/80 72/93/72
f 72/93/72 73/79/73 65/81/65
f 81/94/21 74/82/74 73/79/73
f 74/82/74 83/95/82 75/96/75
f 83/95/82 76/84/76 75/96/75
f 84/97/83 77/86/77 76/84/76
f 85/98/17 78/89/78 77/99/77
f 86/100/84 79/101/79 78/89/78
f 87/102/85 80/92/80 79/101/79
f 80/92/80 81/94/21 73/79/73
f 89/103/87 82/104/81 81/94/21
f 82/104/81 91/105/89 83/95/82
f 83/95/82 92/106/90 84/97/83
f 92/106/90 85/107/17 84/97/83
f 93/108/91 86/100/84 85/98/17
f 94/109/92 87/102/85 86/100/84
f 95/110/93 88/111/86 87/102/85
f 96/112/94 81/94/21 88/111/86
f 89/103/87 98/113/96 90/114/88
f 90/114/88 99/115/97 91/105/89
f 99/115/97 92/106/90 91/105/89
f 100/116/98 93/117/91 92/106/90
f 101/118/99 94/109/92 93/108/91
f 94/109/92 103/119/101 95/110/93
f 103/119/101 96/112/94 95/110/93
f 104/120/102 89/103/87 96/112/94
f 105/121/103 98/113/96 97/122/95
f 106/123/104 99/115/97 98/113/96
f 99/115/97 108/124/106 100/116/98
f 100/116/98 109/125/107 101/126/99
f 101/118/99 110/127/108 102/128/100
f 110/127/108 103/119/101 102/128/100
f 103/119/101 112/129/110 104/120/102
f 104/120/102 105/121/103 97/122/95
f 105/121/103 114/130/111 106/123/104
f 114/130/111 107/131/105 106/123/104
f 107/131/105 116/132/113 108/124/106
f 116/132/113 109/125/107 108/124/106
f 117/133/49 110/127/108 109/134/107
f 118/135/114 111/136/109 110/127/108
f 119/137/115 112/129/110 111/136/109
f 120/138/116 105/121/103 112/129/110
f 113/139/53 122/140/118 114/130/111
f 114/130/111 123/141/119 115/142/112
f 123/141/119 116/132/113 115/142/112
f 116/132/113 125/143/121 117/144/49
f 125/145/121 118/135/114 117/133/49
f 126/146/122 119/137/115 118/135/114
f 127/147/123 120/138/116 119/137/115
f 128/148/124 113/139/53 120/138/116
f 121/149/117 2/2/2 122/140/118
f 122/140/118 3/5/3 123/141/119
f 3/5/3 124/150/120 123/141/119
f 4/7/4 125/143/121 124/150/120
f 5/10/5 126/146/122 125/145/121
f 126/146/122 7/13/7 127/147/123
f 7/13/7 128/148/124 127/147/123
f 8/15/8 121/149/117 128/148/124
f 9/1/9 10/4/10 2/2/2
f 10/4/10 11/17/11 3/5/3
f 3/5/3 11/17/11 12/6/12
f 4/7/4 12/6/12 13/8/13
f 5/10/5 13/21/13 14/11/14
f 14/11/14 15/23/15 7/13/7
f 7/13/7 15/23/15 16/14/16
f 8/15/8 16/14/16 9/1/9
f 9/1/9 17/26/17 18/16/18
f 18/16/18 19/18/19 11/17/11
f 19/18/19 20/19/20 12/6/12
f 20/19/20 21/30/21 13/8/13
f 21/20/21 22/22/22 14/11/14
f 22/22/22 23/33/23 15/23/15
f 15/23/15 23/33/23 24/24/24
f 24/24/24 17/26/17 9/1/9
f 25/25/25 26/36/26 18/16/18
f 18/16/18 26/36/26 27/27/27
f 19/18/19 27/27/27 28/28/28
f 20/19/20 28/28/28 29/29/29
f 29/31/29 30/32/30 22/22/22
f 30/32/30 31/34/31 23/33/23
f 31/34/31 32/41/32 24/24/24
f 24/24/24 32/41/32 25/25/25
f 25/25/25 33/44/33 34/35/34
f 26/36/26 34/35/34 35/37/35
f 35/37/35 36/38/36 28/28/28
f 36/38/36 37/48/37 29/29/29
f 37/39/37 38/50/38 30/32/30
f 30/32/30 38/50/38 39/40/39
f 39/40/39 40/42/40 32/41/32
f 40/42/40 33/44/33 25/25/25
f 41/43/41 42/45/42 34/35/34
f 42/45/42 43/54/43 35/37/35
f 35/37/35 43/54/43 44/46/44
f 36/38/36 44/46/44 45/47/45
f 37/39/37 45/57/45 46/49/46
f 46/49/46 47/59/47 39/40/39
f 39/40/39 47/59/47 48/51/48
f 40/42/40 48/51/48 41/43/41
f 49/52/49 50/53/50 42/45/42
f 50/53/50 51/55/51 43/54/43
f 51/55/51 52/56/52 44/46/44
f 52/56/52 53/64/53 45/47/45
f 45/57/45 53/66/53 54/58/54
f 54/58/54 55/68/55 47/59/47
f 47/59/47 55/68/55 56/60/56
f 56/60/56 49/52/49 41/43/41
f 57/61/57 58/62/58 50/53/50
f 58/62/58 59/72/59 51/55/51
f 51/55/51 59/72/59 60/63/60
f 60/63/60 61/74/61 53/64/53
f 61/65/61 62/67/62 54/58/54
f 62/67/62 63/77/63 55/68/55
f 55/68/55 63/77/63 64/69/64
f 64/69/64 57/61/57 49/52/49
f 57/61/57 65/151/65 66/70/66
f 58/62/58 66/70/66 67/71/67
f 67/71/67 68/73/68 60/63/60
f 68/73/68 69/152/69 61/74/61
f 69/75/69 70/153/70 62/67/62
f 62/67/62 70/153/70 71/76/71
f 71/76/71 72/78/72 64/69/64
f 72/78/72 65/151/65 57/61/57
f 73/79/73 74/82/74 66/80/66
f 74/82/74 75/96/75 67/83/67
f 67/83/67 75/96/75 76/84/76
f 68/85/68 76/84/76 77/86/77
f 69/88/69 77/99/77 78/89/78
f 78/89/78 79/101/79 71/91/71
f 71/91/71 79/101/79 80/92/80
f 72/93/72 80/92/80 73/79/73
f 81/94/21 82/104/81 74/82/74
f 74/82/74 82/104/81 83/95/82
f 83/95/82 84/97/83 76/84/76
f 84/97/83 85/107/17 77/86/77
f 85/98/17 86/100/84 78/89/78
f 86/100/84 87/102/85 79/101/79
f 87/102/85 88/111/86 80/92/80
f 80/92/80 88/111/86 81/94/21
f 89/103/87 90/114/88 82/104/81
f 82/104/81 90/114/88 91/105/89
f 83/95/82 91/105/89 92/106/90
f 92/106/90 93/117/91 85/107/17
f 93/108/91 94/109/92 86/100/84
f 94/109/92 95/110/93 87/102/85
f 95/110/93 96/112/94 88/111/86
f 96/112/94 89/103/87 81/94/21
f 89/103/87 97/122/95 98/113/96
f 90/114/88 98/113/96 99/115/97
f 99/115/97 100/116/98 92/106/90
f 100/116/98 101/126/99 93/117/91
f 101/118/99 102/128/100 94/109/92
f 94/109/92 102/128/100 103/119/101
f 103/119/101 104/120/102 96/112/94
f 104/120/102 97/122/95 89/103/87
f 105/121/103 106/123/104 98/113/96
f 106/123/104 107/131/105 99/115/97
f 99/115/97 107/131/105 108/124/106
f 100/116/98 108/124/106 109/125/107
f 101/118/99 109/134/107 110/127/108
f 110/127/108 111/136/109 103/119/101
f 103/119/101 111/136/109 112/129/110
f 104/120/102 112/129/110 105/121/103
f 105/121/103 113/139/53 114/130/111
f 114/130/111 115/142/112 107/131/105
f 107/131/105 115/142/112 116/132/113
f 116/132/113 117/144/49 109/125/107
f 117/133/49 118/135/114 110/127/108
f 118/135/114 119/137/115 111/136/109
f 119/137/115 120/138/116 112/129/110
f 120/138/116 113/139/53 105/121/103
f 113/139/53 121/149/117 122/140/118
f 114/130/111 122/140/118 123/141/119
f 123/141/119 124/150/120 116/132/113
f 116/132/113 124/150/120 125/143/121
f 125/145/121 126/146/122 118/135/114
f 126/146/122 127/147/123 119/137/115
f 127/147/123 128/148/124 120/138/116
f 128/148/124 121/149/117 113/139/53
f 121/149/117 1/3/1 2/2/2
f 122/140/118 2/2/2 3/5/3
f 3/5/3 4/7/4 124/150/120
f 4/7/4 5/9/5 125/143/121
f 5/10/5 6/12/6 126/146/122
f 126/146/122 6/12/6 7/13/7
f 7/13/7 8/15/8 128/148/124
f 8/15/8 1/3/1 121/149/117
