# Blender 4.1.0
# www.blender.org
mtllib PlayerHat.mtl
o 立方体
v -0.331024 0.572427 0.343009
v -0.331024 0.722158 0.171236
v -0.331024 0.572427 -0.355607
v -0.331024 0.869514 -0.355607
v 0.331024 0.572427 0.343009
v 0.331024 0.722158 0.171236
v 0.331024 0.572427 -0.355607
v 0.331024 0.869514 -0.355607
v -0.000000 0.572427 -0.355607
v -0.000000 0.869514 -0.355607
v 0.000000 0.572427 0.343009
v 0.000000 0.722158 0.171236
v -0.331024 0.720970 0.343009
v -0.331024 0.720970 -0.355607
v 0.331024 0.720970 -0.355607
v 0.331024 0.720970 0.343009
v 0.000000 0.720970 0.343009
v -0.000000 0.720970 -0.355607
v -0.331024 0.572427 -0.006299
v -0.331024 0.869514 -0.006299
v 0.331024 0.572427 -0.006299
v 0.331024 0.869514 -0.006299
v -0.000000 0.869514 -0.006299
v -0.000000 0.572427 -0.006299
v 0.331024 0.720970 -0.006299
v -0.331024 0.720970 -0.006299
v -0.331024 0.572427 0.168355
v 0.331024 0.869514 0.168355
v 0.000000 0.869514 0.168355
v 0.000000 0.572427 0.168355
v 0.331024 0.720970 0.168355
v -0.331024 0.869514 0.168355
v 0.331024 0.572427 0.168355
v -0.331024 0.720970 0.168355
vn -1.0000 -0.0000 -0.0000
vn -0.0000 -0.0000 -1.0000
vn 1.0000 -0.0000 -0.0000
vn -0.0000 1.0000 0.0069
vn -0.0000 -1.0000 -0.0000
vn -0.0000 0.0195 0.9998
vn -0.0000 -0.0000 1.0000
vn -0.0000 1.0000 -0.0000
vt 0.625000 0.125000
vt 0.500000 0.250000
vt 0.500000 0.125000
vt 0.625000 0.375000
vt 0.500000 0.500000
vt 0.500000 0.375000
vt 0.500000 0.687500
vt 0.625000 0.750000
vt 0.500000 0.750000
vt 0.625000 0.875000
vt 0.500000 1.000000
vt 0.500000 0.875000
vt 0.375000 0.687500
vt 0.250000 0.750000
vt 0.250000 0.687500
vt 0.875000 0.687500
vt 0.750000 0.750000
vt 0.750000 0.687500
vt 0.625000 0.687500
vt 0.125000 0.750000
vt 0.125000 0.687500
vt 0.625000 0.250000
vt 0.375000 0.375000
vt 0.375000 0.250000
vt 0.375000 0.875000
vt 0.375000 0.750000
vt 0.375000 1.000000
vt 0.375000 0.500000
vt 0.375000 0.125000
vt 0.500000 0.062500
vt 0.375000 0.062500
vt 0.375000 0.625000
vt 0.250000 0.500000
vt 0.125000 0.625000
vt 0.125000 0.500000
vt 0.750000 0.500000
vt 0.625000 0.625000
vt 0.625000 0.500000
vt 0.875000 0.500000
vt 0.750000 0.625000
vt 0.250000 0.625000
vt 0.500000 0.625000
vt 0.625000 0.062500
vt 0.625000 0.000000
vt 0.500000 0.000000
vt 0.375000 0.000000
vt 0.875000 0.625000
vt 0.625000 1.000000
vt 0.875000 0.750000
s 0
usemtl マテリアル.010
f 20/1/1 14/2/1 26/3/1
f 10/4/2 15/5/2 18/6/2
f 31/7/3 6/8/3 16/9/3
f 12/10/4 13/11/4 17/12/4
f 33/13/5 11/14/5 30/15/5
f 32/16/6 12/17/6 29/18/6
f 29/18/6 6/8/6 28/19/6
f 30/15/5 1/20/5 27/21/5
f 6/8/4 17/12/4 16/9/4
f 4/22/2 18/6/2 14/2/2
f 14/2/2 9/23/2 3/24/2
f 16/9/7 11/25/7 5/26/7
f 17/12/7 1/27/7 11/25/7
f 31/7/3 5/26/3 33/13/3
f 18/6/2 7/28/2 9/23/2
f 26/3/1 3/24/1 19/29/1
f 34/30/1 19/29/1 27/31/1
f 15/5/3 21/32/3 7/28/3
f 9/33/5 19/34/5 3/35/5
f 10/36/8 22/37/8 8/38/8
f 4/39/8 23/40/8 10/36/8
f 7/28/5 24/41/5 9/33/5
f 8/38/3 25/42/3 15/5/3
f 32/43/1 26/3/1 34/30/1
f 2/44/1 34/30/1 13/45/1
f 13/45/1 27/31/1 1/46/1
f 25/42/3 33/13/3 21/32/3
f 24/41/5 27/21/5 19/34/5
f 23/40/8 28/19/8 22/37/8
f 20/47/8 29/18/8 23/40/8
f 21/32/5 30/15/5 24/41/5
f 22/37/3 31/7/3 25/42/3
f 20/1/1 4/22/1 14/2/1
f 10/4/2 8/38/2 15/5/2
f 31/7/3 28/19/3 6/8/3
f 12/10/4 2/48/4 13/11/4
f 33/13/5 5/26/5 11/14/5
f 32/16/6 2/49/6 12/17/6
f 29/18/6 12/17/6 6/8/6
f 30/15/5 11/14/5 1/20/5
f 6/8/4 12/10/4 17/12/4
f 4/22/2 10/4/2 18/6/2
f 14/2/2 18/6/2 9/23/2
f 16/9/7 17/12/7 11/25/7
f 17/12/7 13/11/7 1/27/7
f 31/7/3 16/9/3 5/26/3
f 18/6/2 15/5/2 7/28/2
f 26/3/1 14/2/1 3/24/1
f 34/30/1 26/3/1 19/29/1
f 15/5/3 25/42/3 21/32/3
f 9/33/5 24/41/5 19/34/5
f 10/36/8 23/40/8 22/37/8
f 4/39/8 20/47/8 23/40/8
f 7/28/5 21/32/5 24/41/5
f 8/38/3 22/37/3 25/42/3
f 32/43/1 20/1/1 26/3/1
f 2/44/1 32/43/1 34/30/1
f 13/45/1 34/30/1 27/31/1
f 25/42/3 31/7/3 33/13/3
f 24/41/5 30/15/5 27/21/5
f 23/40/8 29/18/8 28/19/8
f 20/47/8 32/16/8 29/18/8
f 21/32/5 33/13/5 30/15/5
f 22/37/3 28/19/3 31/7/3
