# Blender 4.1.1
# www.blender.org
mtllib LeftArchDoor.mtl
o 立方体.003
v 0.564232 0.837138 0.067598
v 0.484961 -0.090850 -0.058586
v 0.536414 0.734759 -0.043696
v 0.476523 -0.099289 -0.058586
v 0.405944 0.711856 -0.043696
v 0.417463 0.811375 0.067598
v 0.484611 -0.090636 -0.050157
v 0.289861 0.647745 -0.043696
v 0.286878 0.739255 0.067598
v 0.478754 -0.093082 -0.050194
v 0.184288 0.539734 -0.043696
v 0.478995 -0.093322 -0.058586
v 0.476308 -0.098938 -0.050157
v 0.168117 0.617750 0.067598
v 0.072797 0.452117 0.067598
v 0.476523 -0.111951 -0.058586
v 0.099553 0.392495 -0.043696
v 0.011193 0.253820 0.067598
v 0.484961 -0.120389 -0.058586
v 0.044791 0.216218 -0.043696
v -0.010807 0.031004 0.067598
v 0.478995 -0.117918 -0.058586
v 0.025233 0.018146 -0.043696
v -0.010807 -0.867006 0.067598
v 0.478754 -0.118158 -0.050194
v 0.025233 -0.780139 -0.043696
v 0.484611 -0.120604 -0.050157
v 0.591264 0.837138 0.067598
v 0.560445 0.734759 -0.043696
v 0.476308 -0.112301 -0.050157
v 0.591264 -0.867006 0.067598
v 0.560445 -0.780139 -0.043696
v 0.591264 -0.867006 -0.079744
v 0.591264 0.837138 -0.079744
v 0.417463 0.811375 -0.079744
v 0.564232 0.837138 -0.079744
v 0.286878 0.739255 -0.079744
v 0.168117 0.617750 -0.079744
v 0.072797 0.452117 -0.079744
v 0.011193 0.253820 -0.079744
v -0.010807 0.031004 -0.079744
v -0.010807 -0.867006 -0.079744
v 0.025233 -0.780139 -0.079744
v 0.560445 -0.780139 -0.079744
v 0.560445 0.734759 -0.079744
v 0.536414 0.734759 -0.079744
v 0.506062 -0.099289 -0.058586
v 0.025233 0.018146 -0.079744
v 0.184288 0.539734 -0.079744
v 0.497624 -0.090850 -0.058586
v 0.289861 0.647745 -0.079744
v 0.503831 -0.093082 -0.050194
v 0.405944 0.711856 -0.079744
v 0.099553 0.392495 -0.079744
v 0.506277 -0.098938 -0.050157
v 0.044791 0.216218 -0.079744
v 0.503590 -0.093322 -0.058586
v 0.497974 -0.090636 -0.050157
v 0.497624 -0.120389 -0.058586
v 0.506062 -0.111951 -0.058586
v 0.497974 -0.120604 -0.050157
v 0.503831 -0.118158 -0.050194
v 0.503590 -0.117918 -0.058586
v 0.506277 -0.112301 -0.050157
v 0.475242 -0.098104 -0.084877
v 0.476523 -0.099289 -0.068098
v 0.484961 -0.090850 -0.068098
v 0.483777 -0.089569 -0.084877
v 0.476148 -0.098697 -0.076508
v 0.478597 -0.092924 -0.076443
v 0.478995 -0.093322 -0.068098
v 0.484369 -0.090475 -0.076508
v 0.477822 -0.092149 -0.084359
v 0.475242 -0.113135 -0.084877
v 0.483777 -0.121670 -0.084877
v 0.484961 -0.120389 -0.068098
v 0.476523 -0.111951 -0.068098
v 0.477822 -0.119091 -0.084359
v 0.478597 -0.118316 -0.076444
v 0.484369 -0.120764 -0.076508
v 0.478995 -0.117918 -0.068098
v 0.476148 -0.112543 -0.076508
v 0.507343 -0.098104 -0.084877
v 0.498808 -0.089569 -0.084877
v 0.497624 -0.090850 -0.068098
v 0.506062 -0.099289 -0.068098
v 0.504763 -0.092149 -0.084359
v 0.503988 -0.092924 -0.076444
v 0.498216 -0.090475 -0.076508
v 0.503590 -0.093322 -0.068098
v 0.506437 -0.098697 -0.076508
v 0.507343 -0.113135 -0.084877
v 0.506062 -0.111951 -0.068098
v 0.497624 -0.120389 -0.068098
v 0.498808 -0.121670 -0.084877
v 0.506437 -0.112543 -0.076508
v 0.503988 -0.118316 -0.076443
v 0.503590 -0.117918 -0.068098
v 0.498216 -0.120764 -0.076508
v 0.504763 -0.119091 -0.084359
v 0.469844 -0.092706 -0.120029
v 0.478379 -0.084171 -0.120029
v 0.477001 -0.091328 -0.128370
v 0.472364 -0.086691 -0.120029
v 0.472691 -0.087018 -0.124845
v 0.477425 -0.085717 -0.125927
v 0.471389 -0.091752 -0.125927
v 0.469844 -0.118534 -0.120029
v 0.477001 -0.119911 -0.128370
v 0.478379 -0.127069 -0.120029
v 0.471389 -0.119488 -0.125927
v 0.472691 -0.124221 -0.124845
v 0.477425 -0.125523 -0.125927
v 0.472364 -0.124549 -0.120029
v 0.512741 -0.092706 -0.120029
v 0.505584 -0.091328 -0.128370
v 0.504206 -0.084171 -0.120029
v 0.511196 -0.091752 -0.125927
v 0.509894 -0.087018 -0.124845
v 0.505160 -0.085717 -0.125927
v 0.510222 -0.086691 -0.120029
v 0.512741 -0.118534 -0.120029
v 0.504206 -0.127069 -0.120029
v 0.505584 -0.119911 -0.128370
v 0.510222 -0.124549 -0.120029
v 0.509894 -0.124221 -0.124845
v 0.505160 -0.125523 -0.125927
v 0.511196 -0.119488 -0.125927
v 0.506675 -0.098669 -0.043696
v 0.506675 -0.112571 -0.043696
v 0.504195 -0.118522 -0.043696
v 0.498243 -0.121002 -0.043696
v 0.498243 -0.090238 -0.043696
v 0.504195 -0.092717 -0.043696
v 0.484342 -0.090238 -0.043696
v 0.475911 -0.112571 -0.043696
v 0.475911 -0.098669 -0.043696
v 0.478390 -0.118522 -0.043696
v 0.484342 -0.121002 -0.043696
v 0.478390 -0.092717 -0.043696
vn -0.9550 0.2967 -0.0000
vn -0.0000 -1.0000 -0.0000
vn -0.9952 0.0983 -0.0000
vn -0.0000 1.0000 -0.0000
vn -1.0000 -0.0000 -0.0000
vn -0.1729 0.9849 -0.0000
vn -0.4835 0.8754 -0.0000
vn -0.7151 0.6990 -0.0000
vn -0.8667 0.4988 -0.0000
vn 1.0000 -0.0000 -0.0000
vn -0.0000 -0.0000 1.0000
vn -0.0000 -0.0000 -1.0000
vn 0.9550 -0.2967 -0.0000
vn 0.9952 -0.0983 -0.0000
vn 0.1729 -0.9849 -0.0000
vn 0.4835 -0.8754 -0.0000
vn 0.7151 -0.6990 -0.0000
vn 0.8667 -0.4988 -0.0000
vn -0.0000 0.9884 0.1518
vn -0.9884 -0.0000 0.1518
vn 0.9884 -0.0000 0.1518
vn -0.0000 -0.9884 0.1518
vn -0.3834 0.9207 -0.0732
vn -0.3825 0.9231 -0.0393
vn -0.9231 0.3824 -0.0395
vn -0.9205 0.3840 -0.0725
vn -0.9231 -0.3824 -0.0394
vn -0.3824 -0.9232 -0.0394
vn -0.3840 -0.9205 -0.0727
vn -0.9206 -0.3835 -0.0731
vn 0.3834 0.9207 -0.0732
vn 0.9206 0.3836 -0.0731
vn 0.9231 0.3824 -0.0395
vn 0.3820 0.9233 -0.0396
vn 0.3836 -0.9206 -0.0731
vn 0.3824 -0.9232 -0.0394
vn 0.9231 -0.3824 -0.0394
vn 0.9205 -0.3839 -0.0728
vn -0.9142 0.3851 0.1263
vn -0.9217 0.3819 0.0680
vn -0.3819 0.9217 0.0680
vn -0.3851 0.9142 0.1262
vn -0.9142 -0.3850 0.1262
vn -0.3850 -0.9143 0.1262
vn -0.3818 -0.9218 0.0680
vn -0.9217 -0.3819 0.0680
vn 0.9142 0.3851 0.1263
vn 0.3851 0.9142 0.1262
vn 0.3819 0.9217 0.0680
vn 0.9217 0.3818 0.0680
vn 0.9142 -0.3850 0.1262
vn 0.9217 -0.3818 0.0680
vn 0.3818 -0.9218 0.0680
vn 0.3850 -0.9143 0.1262
vn -0.9187 0.3849 -0.0885
vn -0.3012 0.9332 -0.1959
vn -0.3919 0.3920 -0.8323
vn -0.9332 -0.3015 -0.1957
vn -0.3919 -0.3919 -0.8324
vn -0.3849 -0.9187 -0.0887
vn 0.9332 0.3014 -0.1957
vn 0.3919 0.3920 -0.8323
vn 0.3850 0.9186 -0.0889
vn 0.9187 -0.3848 -0.0888
vn 0.3014 -0.9332 -0.1959
vn 0.3919 -0.3919 -0.8324
vn -0.9997 -0.0000 -0.0255
vn -0.9981 -0.0000 -0.0613
vn 0.9997 -0.0000 -0.0255
vn 0.9981 -0.0000 -0.0615
vn -0.0000 0.9981 -0.0615
vn -0.0000 0.9997 -0.0254
vn -0.0000 -0.9981 -0.0615
vn -0.0000 -0.9997 -0.0255
vn -0.9942 -0.0000 0.1076
vn -0.9990 -0.0000 0.0445
vn 0.9942 -0.0000 0.1076
vn 0.9990 -0.0000 0.0445
vn -0.0000 0.9990 0.0445
vn -0.0000 0.9942 0.1076
vn -0.0000 -0.9990 0.0445
vn -0.0000 -0.9942 0.1076
vn -0.3828 0.9238 -0.0000
vn -0.9239 0.3827 -0.0000
vn -0.3827 -0.9239 -0.0000
vn -0.9239 -0.3827 -0.0000
vn 0.9239 0.3827 -0.0000
vn 0.3828 0.9238 -0.0000
vn 0.9239 -0.3827 -0.0000
vn 0.3827 -0.9239 -0.0000
vn -0.3991 -0.0000 -0.9169
vn -0.9673 -0.0000 -0.2537
vn 0.3991 -0.0000 -0.9169
vn 0.9672 -0.0000 -0.2539
vn -0.0000 0.9673 -0.2536
vn -0.0000 0.3992 -0.9169
vn -0.0000 -0.9673 -0.2536
vn -0.0000 -0.3991 -0.9169
vn -0.3788 0.9042 0.1970
vn -0.9059 0.3754 0.1961
vn -0.3788 -0.9042 0.1971
vn -0.9059 -0.3754 0.1961
vn 0.9043 -0.3787 0.1970
vn 0.3753 -0.9059 0.1961
vn 0.3788 0.9043 0.1970
vn 0.9059 0.3754 0.1961
vn -0.3840 0.9205 -0.0727
vn -0.3849 0.9222 -0.0374
vn -0.9222 0.3850 -0.0375
vn -0.9207 0.3835 -0.0731
vn -0.9222 -0.3849 -0.0375
vn -0.3849 -0.9222 -0.0374
vn -0.3836 -0.9206 -0.0731
vn -0.9205 -0.3839 -0.0726
vn 0.3840 0.9205 -0.0727
vn 0.9205 0.3840 -0.0727
vn 0.9222 0.3850 -0.0375
vn 0.3849 0.9222 -0.0374
vn 0.3840 -0.9205 -0.0727
vn 0.3849 -0.9222 -0.0374
vn 0.9222 -0.3849 -0.0375
vn 0.9206 -0.3836 -0.0731
vn -0.9136 0.3861 0.1273
vn -0.9190 0.3892 0.0624
vn -0.3892 0.9190 0.0624
vn -0.3862 0.9136 0.1273
vn -0.9136 -0.3862 0.1273
vn -0.3866 -0.9134 0.1274
vn -0.3891 -0.9191 0.0624
vn -0.9190 -0.3892 0.0624
vn 0.9136 0.3862 0.1273
vn 0.3862 0.9136 0.1273
vn 0.3892 0.9190 0.0624
vn 0.9190 0.3892 0.0624
vn 0.9136 -0.3861 0.1273
vn 0.9190 -0.3892 0.0624
vn 0.3891 -0.9191 0.0624
vn 0.3861 -0.9137 0.1272
vn -0.9332 0.3014 -0.1957
vn -0.3849 0.9187 -0.0889
vn -0.2879 0.2879 -0.9134
vn -0.9187 -0.3849 -0.0886
vn -0.2880 -0.2880 -0.9133
vn -0.3014 -0.9332 -0.1958
vn 0.9187 0.3848 -0.0887
vn 0.2883 0.2882 -0.9131
vn 0.3017 0.9331 -0.1955
vn 0.9332 -0.3014 -0.1957
vn 0.3848 -0.9187 -0.0888
vn 0.2880 -0.2880 -0.9133
vn -0.9674 -0.0000 -0.2534
vn 0.9673 -0.0000 -0.2537
vn -0.3754 0.9059 0.1961
vn -0.9042 0.3788 0.1970
vn -0.3753 -0.9059 0.1960
vn -0.9042 -0.3788 0.1970
vn 0.9059 -0.3754 0.1961
vn 0.3788 -0.9043 0.1971
vn 0.3754 0.9059 0.1961
vn 0.9043 0.3787 0.1970
vt 0.892132 0.233901
vt 0.892021 0.139228
vt 0.961625 0.139326
vt 0.568856 0.999981
vt 0.568856 0.715662
vt 0.638459 0.715681
vt 0.892046 0.339471
vt 0.961736 0.233999
vt 0.708129 0.838325
vt 0.708155 0.850953
vt 0.638549 0.851158
vt 0.891305 0.763425
vt 0.961650 0.339568
vt 0.708065 0.771581
vt 0.638523 0.838531
vt 0.708155 0.715662
vt 0.638459 0.771786
vt 0.891733 0.059399
vt 0.891305 0.000000
vt 0.960908 0.000098
vt 0.961337 0.059496
vt 0.891305 0.785615
vt 0.821699 0.785694
vt 0.271658 0.805065
vt 0.039496 0.623175
vt 0.000000 0.424234
vt 0.297198 0.805065
vt 0.298987 0.756700
vt 0.310340 0.756700
vt 0.542591 0.511732
vt 0.568856 0.424234
vt 0.529360 0.623175
vt 0.996184 0.224230
vt 0.979154 0.224234
vt 0.979102 0.137317
vt 0.725184 0.965676
vt 0.708155 0.965691
vt 0.708155 0.715677
vt 0.996143 0.317561
vt 0.979114 0.317564
vt 0.742213 0.715662
vt 0.742248 0.727010
vt 0.725220 0.727059
vt 0.995794 0.685572
vt 0.978765 0.685575
vt 0.742336 0.788923
vt 0.725307 0.788971
vt 0.742213 0.844581
vt 0.725184 0.844630
vt 0.995996 0.060690
vt 0.978967 0.060693
vt 0.978765 0.000003
vt 0.996132 0.137314
vt 0.978765 0.715191
vt 0.961736 0.715197
vt 0.961736 0.000006
vt 0.580209 0.715662
vt 0.595430 0.324749
vt 0.598241 0.325920
vt 0.568856 -0.000000
vt 0.607620 0.312559
vt 0.604808 0.311387
vt 0.748492 0.766073
vt 0.748488 0.761580
vt 0.754403 0.761580
vt 0.766230 0.766073
vt 0.766225 0.761579
vt 0.772062 0.761579
vt 0.748238 0.727198
vt 0.748239 0.722705
vt 0.754219 0.722705
vt 0.744968 0.790625
vt 0.747856 0.774003
vt 0.754877 0.774003
vt 0.766225 0.727198
vt 0.766223 0.722704
vt 0.772201 0.722704
vt 0.765646 0.735130
vt 0.772743 0.735130
vt 0.775204 0.751760
vt 0.762534 0.790622
vt 0.765561 0.774002
vt 0.772490 0.774002
vt 0.793628 0.757191
vt 0.793628 0.770694
vt 0.780125 0.770694
vt 0.745210 0.751761
vt 0.747693 0.735130
vt 0.754791 0.735130
vt 0.745742 0.757609
vt 0.745543 0.754540
vt 0.748149 0.754547
vt 0.748306 0.757598
vt 0.745875 0.761573
vt 0.775060 0.722693
vt 0.772361 0.718724
vt 0.775168 0.718730
vt 0.772481 0.715673
vt 0.766053 0.718724
vt 0.763448 0.722693
vt 0.757004 0.722693
vt 0.754388 0.718724
vt 0.757122 0.718730
vt 0.754521 0.715674
vt 0.763329 0.718730
vt 0.763150 0.715662
vt 0.765917 0.715673
vt 0.754643 0.754547
vt 0.757598 0.754540
vt 0.757456 0.757609
vt 0.763589 0.757609
vt 0.763380 0.754540
vt 0.765868 0.754546
vt 0.766036 0.757598
vt 0.763729 0.761573
vt 0.757364 0.761573
vt 0.754548 0.757598
vt 0.745280 0.718730
vt 0.745113 0.715662
vt 0.747956 0.715674
vt 0.748077 0.718724
vt 0.745389 0.722693
vt 0.775068 0.761573
vt 0.772197 0.757598
vt 0.775149 0.757609
vt 0.772277 0.754546
vt 0.775598 0.734874
vt 0.772477 0.731172
vt 0.772202 0.727198
vt 0.775062 0.727187
vt 0.745879 0.766066
vt 0.748192 0.770047
vt 0.745255 0.773751
vt 0.765940 0.731172
vt 0.762879 0.734874
vt 0.757570 0.734874
vt 0.754501 0.731173
vt 0.754218 0.727198
vt 0.757003 0.727187
vt 0.763450 0.727187
vt 0.765923 0.770046
vt 0.763081 0.773751
vt 0.757840 0.773751
vt 0.754661 0.770047
vt 0.754407 0.766073
vt 0.757368 0.766066
vt 0.763734 0.766066
vt 0.775502 0.773751
vt 0.772306 0.770046
vt 0.772067 0.766073
vt 0.775073 0.766066
vt 0.745388 0.727187
vt 0.747962 0.731173
vt 0.744847 0.734874
vt 0.778087 0.751748
vt 0.777939 0.754022
vt 0.744634 0.793407
vt 0.742514 0.792892
vt 0.796278 0.757392
vt 0.793427 0.754540
vt 0.763011 0.751760
vt 0.762588 0.754539
vt 0.760375 0.754022
vt 0.780324 0.754540
vt 0.780125 0.757191
vt 0.777473 0.757392
vt 0.757407 0.751761
vt 0.760214 0.751749
vt 0.760055 0.754023
vt 0.762257 0.793404
vt 0.760208 0.792890
vt 0.793427 0.773346
vt 0.796278 0.770494
vt 0.757033 0.790625
vt 0.760021 0.790618
vt 0.759893 0.792892
vt 0.774441 0.790622
vt 0.777474 0.790615
vt 0.777359 0.792890
vt 0.744739 0.754540
vt 0.742486 0.754023
vt 0.777473 0.770494
vt 0.780324 0.773346
vt 0.775682 0.754539
vt 0.775043 0.793404
vt 0.757836 0.754540
vt 0.742336 0.790618
vt 0.760214 0.751748
vt 0.742336 0.751749
vt 0.760021 0.790615
vt 0.638459 1.000000
vt 0.960908 0.763523
vt 0.638549 0.715868
vt 0.821699 0.000079
vt 0.140631 0.758824
vt 0.084527 0.701423
vt 0.202322 0.792894
vt 0.284428 0.000000
vt 0.284428 0.805065
vt 0.000000 0.000000
vt 0.010393 0.529496
vt 0.551830 0.041037
vt 0.551830 0.418160
vt 0.428225 0.758824
vt 0.366534 0.792894
vt 0.484329 0.701423
vt 0.476690 0.664567
vt 0.516720 0.595009
vt 0.426816 0.715593
vt 0.298987 0.041037
vt 0.371976 0.745880
vt 0.558463 0.529496
vt 0.725184 0.715662
vt 0.725184 0.715711
vt 0.995794 -0.000000
vt 0.978765 -0.000000
vt 0.696684 0.674555
vt 0.641845 0.704842
vt 0.786589 0.553971
vt 0.746559 0.623529
vt 0.821699 0.377123
vt 0.812459 0.470695
vt 0.821699 0.000000
vt 0.608791 0.315370
vt 0.595430 0.312559
vt 0.598241 0.311387
vt 0.594258 0.315370
vt 0.608791 0.321937
vt 0.607620 0.324749
vt 0.594258 0.321937
vt 0.604808 0.325920
vt 0.775333 0.715662
vt 0.757299 0.715662
vt 0.775276 0.754540
vt 0.775244 0.731131
vt 0.745669 0.770009
vt 0.763256 0.731131
vt 0.757195 0.731131
vt 0.763514 0.770010
vt 0.757530 0.770010
vt 0.775220 0.770010
vt 0.745204 0.731131
vt 0.795664 0.755155
vt 0.778089 0.755155
vt 0.795664 0.772731
vt 0.757590 0.793407
vt 0.778089 0.772731
s 0
usemtl マテリアル.003
f 18/1/1 15/2/1 39/3/1
f 31/4/2 24/5/2 42/6/2
f 21/7/3 18/1/3 40/8/3
f 1/9/4 28/10/4 34/11/4
f 24/12/5 21/7/5 41/13/5
f 6/14/6 1/9/6 36/15/6
f 9/16/7 6/14/7 35/17/7
f 14/18/8 9/19/8 37/20/8
f 15/2/9 14/18/9 38/21/9
f 28/19/10 31/22/10 33/23/10
f 1/24/11 15/25/11 21/26/11
f 36/27/12 45/28/12 46/29/12
f 56/30/12 41/31/12 39/32/12
f 20/33/13 56/34/13 54/35/13
f 32/36/4 44/37/4 43/38/4
f 20/33/14 23/39/14 48/40/14
f 29/41/2 3/42/2 46/43/2
f 26/44/10 43/45/10 48/40/10
f 3/42/15 5/46/15 53/47/15
f 5/46/16 8/48/16 51/49/16
f 11/50/17 49/51/17 51/52/17
f 17/53/18 54/35/18 49/51/18
f 29/54/5 45/55/5 44/56/5
f 3/57/12 134/58/12 133/59/12
f 32/60/12 138/61/12 139/62/12
f 67/63/4 2/64/4 50/65/4
f 86/66/10 47/67/10 60/68/10
f 94/69/2 59/70/2 19/71/2
f 102/72/19 68/73/19 84/74/19
f 77/75/5 16/76/5 4/77/5
f 74/78/20 65/79/20 101/80/20
f 115/81/21 83/82/21 92/83/21
f 103/84/12 116/85/12 124/86/12
f 123/87/22 95/88/22 75/89/22
f 10/90/23 140/91/23 135/92/23
f 7/93/24 2/64/24 12/94/24
f 12/95/25 4/77/25 13/96/25
f 10/97/26 13/96/26 137/98/26
f 30/99/27 16/76/27 22/100/27
f 22/101/28 19/71/28 27/102/28
f 25/103/29 27/102/29 139/104/29
f 25/105/30 138/106/30 136/107/30
f 133/108/31 134/109/31 52/110/31
f 52/111/32 134/112/32 129/113/32
f 55/114/33 47/67/33 57/115/33
f 57/116/34 50/65/34 58/117/34
f 62/118/35 131/119/35 132/120/35
f 61/121/36 59/70/36 63/122/36
f 63/123/37 60/68/37 64/124/37
f 62/125/38 64/124/38 130/126/38
f 73/127/39 65/79/39 69/128/39
f 69/128/40 66/129/40 71/130/40
f 71/131/41 67/63/41 72/132/41
f 72/132/42 68/73/42 73/133/42
f 82/134/43 74/78/43 78/135/43
f 78/136/44 75/89/44 80/137/44
f 80/137/45 76/138/45 81/139/45
f 81/140/46 77/75/46 82/134/46
f 91/141/47 83/82/47 87/142/47
f 87/143/48 84/74/48 89/144/48
f 89/144/49 85/145/49 90/146/49
f 90/147/50 86/66/50 91/141/50
f 100/148/51 92/83/51 96/149/51
f 96/149/52 93/150/52 98/151/52
f 98/152/53 94/69/53 99/153/53
f 99/153/54 95/88/54 100/154/54
f 101/80/55 104/155/55 105/156/55
f 102/72/56 106/157/56 105/158/56
f 106/159/57 103/84/57 107/160/57
f 108/161/58 111/162/58 112/163/58
f 111/164/59 109/165/59 113/166/59
f 110/167/60 114/168/60 112/169/60
f 115/81/61 118/170/61 119/171/61
f 118/172/62 116/85/62 120/173/62
f 117/174/63 121/175/63 119/176/63
f 122/177/64 125/178/64 126/179/64
f 123/87/65 127/180/65 126/181/65
f 127/182/66 124/86/66 128/183/66
f 13/96/67 4/77/67 16/76/67
f 13/96/68 30/99/68 136/107/68
f 64/124/69 60/68/69 47/67/69
f 64/124/70 55/114/70 129/113/70
f 7/93/71 135/92/71 133/108/71
f 2/64/72 7/93/72 58/117/72
f 61/121/73 132/120/73 139/104/73
f 59/70/74 61/121/74 27/102/74
f 69/128/75 65/79/75 74/78/75
f 66/129/76 69/128/76 82/134/76
f 96/149/77 92/83/77 83/82/77
f 93/150/78 96/149/78 91/141/78
f 72/132/79 67/63/79 85/145/79
f 68/73/80 72/132/80 89/144/80
f 99/153/81 94/69/81 76/138/81
f 95/88/82 99/153/82 80/137/82
f 12/94/83 2/64/83 67/63/83
f 4/77/84 12/95/84 71/130/84
f 81/139/85 76/138/85 19/71/85
f 77/75/86 81/140/86 22/100/86
f 57/115/87 47/67/87 86/66/87
f 50/65/88 57/116/88 90/146/88
f 98/151/89 93/150/89 60/68/89
f 94/69/90 98/152/90 63/122/90
f 103/84/91 109/165/91 111/164/91
f 101/80/92 107/184/92 111/162/92
f 128/183/93 124/86/93 116/85/93
f 128/185/94 118/170/94 115/81/94
f 106/157/95 102/72/95 117/174/95
f 103/84/96 106/159/96 120/173/96
f 123/87/97 110/167/97 113/186/97
f 124/86/98 127/182/98 113/166/98
f 68/73/99 102/72/99 104/187/99
f 65/79/100 73/127/100 104/155/100
f 114/168/101 110/167/101 75/89/101
f 114/188/102 78/135/102 74/78/102
f 125/178/103 122/177/103 92/83/103
f 125/189/104 100/154/104 95/88/104
f 121/175/105 117/174/105 84/74/105
f 121/190/106 87/142/106 83/82/106
f 18/1/1 39/3/1 40/8/1
f 31/4/2 42/6/2 33/191/2
f 21/7/3 40/8/3 41/13/3
f 1/9/4 34/11/4 36/15/4
f 24/12/5 41/13/5 42/192/5
f 6/14/6 36/15/6 35/17/6
f 9/16/7 35/17/7 37/193/7
f 14/18/8 37/20/8 38/21/8
f 15/2/9 38/21/9 39/3/9
f 28/19/10 33/23/10 34/194/10
f 15/25/11 9/195/11 14/196/11
f 9/195/11 1/24/11 6/197/11
f 1/24/11 31/198/11 28/199/11
f 31/198/11 21/26/11 24/200/11
f 21/26/11 15/25/11 18/201/11
f 15/25/11 1/24/11 9/195/11
f 1/24/11 21/26/11 31/198/11
f 43/202/12 41/31/12 48/203/12
f 33/198/12 36/27/12 34/199/12
f 36/27/12 37/204/12 35/205/12
f 37/204/12 39/32/12 38/206/12
f 39/32/12 49/207/12 54/208/12
f 39/32/12 51/209/12 49/207/12
f 43/202/12 42/60/12 41/31/12
f 44/210/12 42/60/12 43/202/12
f 37/204/12 51/209/12 39/32/12
f 37/204/12 53/211/12 51/209/12
f 44/210/12 33/198/12 42/60/12
f 45/28/12 33/198/12 44/210/12
f 36/27/12 53/211/12 37/204/12
f 36/27/12 46/29/12 53/211/12
f 45/28/12 36/27/12 33/198/12
f 56/30/12 39/32/12 54/208/12
f 39/32/12 41/31/12 40/212/12
f 41/31/12 56/30/12 48/203/12
f 20/33/13 54/35/13 17/53/13
f 32/36/4 43/38/4 26/213/4
f 20/33/14 48/40/14 56/34/14
f 29/41/2 46/43/2 45/214/2
f 26/44/10 48/40/10 23/39/10
f 3/42/15 53/47/15 46/43/15
f 5/46/16 51/49/16 53/47/16
f 11/50/17 51/52/17 8/215/17
f 17/53/18 49/51/18 11/50/18
f 29/54/5 44/56/5 32/216/5
f 32/60/12 3/57/12 29/5/12
f 3/57/12 8/217/12 5/218/12
f 8/217/12 17/219/12 11/220/12
f 17/219/12 23/221/12 20/222/12
f 23/221/12 138/61/12 26/223/12
f 23/221/12 136/224/12 138/61/12
f 8/217/12 23/221/12 17/219/12
f 131/225/12 32/60/12 132/226/12
f 130/227/12 32/60/12 131/225/12
f 3/57/12 23/221/12 8/217/12
f 23/221/12 137/228/12 136/224/12
f 23/221/12 140/229/12 137/228/12
f 130/227/12 3/57/12 32/60/12
f 129/230/12 3/57/12 130/227/12
f 3/57/12 140/229/12 23/221/12
f 3/57/12 135/231/12 140/229/12
f 134/58/12 3/57/12 129/230/12
f 3/57/12 133/59/12 135/231/12
f 138/61/12 32/60/12 26/223/12
f 32/60/12 139/62/12 132/226/12
f 67/63/4 50/65/4 85/145/4
f 86/66/10 60/68/10 93/150/10
f 94/69/2 19/71/2 76/138/2
f 102/72/19 84/74/19 117/174/19
f 77/75/5 4/77/5 66/129/5
f 74/78/20 101/80/20 108/161/20
f 115/81/21 92/83/21 122/177/21
f 103/84/12 124/86/12 109/165/12
f 123/87/22 75/89/22 110/167/22
f 10/90/107 135/92/107 7/93/107
f 7/93/108 12/94/108 10/90/108
f 12/95/109 13/96/109 10/97/109
f 10/97/110 137/98/110 140/232/110
f 30/99/111 22/100/111 25/105/111
f 22/101/112 27/102/112 25/103/112
f 25/103/113 139/104/113 138/233/113
f 25/105/114 136/107/114 30/99/114
f 133/108/115 52/110/115 58/117/115
f 52/111/116 129/113/116 55/114/116
f 55/114/117 57/115/117 52/111/117
f 57/116/118 58/117/118 52/110/118
f 62/118/119 132/120/119 61/121/119
f 61/121/120 63/122/120 62/118/120
f 63/123/121 64/124/121 62/125/121
f 62/125/122 130/126/122 131/234/122
f 73/127/123 69/128/123 70/235/123
f 69/128/124 71/130/124 70/235/124
f 71/131/125 72/132/125 70/236/125
f 72/132/126 73/133/126 70/236/126
f 82/134/127 78/135/127 79/237/127
f 78/136/128 80/137/128 79/238/128
f 80/137/129 81/139/129 79/238/129
f 81/140/130 82/134/130 79/237/130
f 91/141/131 87/142/131 88/239/131
f 87/143/132 89/144/132 88/240/132
f 89/144/133 90/146/133 88/240/133
f 90/147/134 91/141/134 88/239/134
f 100/148/135 96/149/135 97/241/135
f 96/149/136 98/151/136 97/241/136
f 98/152/137 99/153/137 97/242/137
f 99/153/138 100/154/138 97/242/138
f 101/80/139 105/156/139 107/184/139
f 102/72/140 105/158/140 104/187/140
f 106/159/141 107/160/141 105/243/141
f 108/161/142 112/163/142 114/188/142
f 111/164/143 113/166/143 112/244/143
f 110/167/144 112/169/144 113/186/144
f 115/81/145 119/171/145 121/190/145
f 118/172/146 120/173/146 119/245/146
f 117/174/147 119/176/147 120/246/147
f 122/177/148 126/179/148 128/185/148
f 123/87/149 126/181/149 125/189/149
f 127/182/150 128/183/150 126/247/150
f 13/96/67 16/76/67 30/99/67
f 13/96/68 136/107/68 137/98/68
f 64/124/69 47/67/69 55/114/69
f 64/124/70 129/113/70 130/126/70
f 7/93/71 133/108/71 58/117/71
f 2/64/72 58/117/72 50/65/72
f 61/121/73 139/104/73 27/102/73
f 59/70/74 27/102/74 19/71/74
f 69/128/75 74/78/75 82/134/75
f 66/129/76 82/134/76 77/75/76
f 96/149/77 83/82/77 91/141/77
f 93/150/78 91/141/78 86/66/78
f 72/132/79 85/145/79 89/144/79
f 68/73/80 89/144/80 84/74/80
f 99/153/81 76/138/81 80/137/81
f 95/88/82 80/137/82 75/89/82
f 12/94/83 67/63/83 71/131/83
f 4/77/84 71/130/84 66/129/84
f 81/139/85 19/71/85 22/101/85
f 77/75/86 22/100/86 16/76/86
f 57/115/87 86/66/87 90/147/87
f 50/65/88 90/146/88 85/145/88
f 98/151/89 60/68/89 63/123/89
f 94/69/90 63/122/90 59/70/90
f 103/84/91 111/164/91 107/160/91
f 101/80/151 111/162/151 108/161/151
f 128/183/93 116/85/93 118/172/93
f 128/185/152 115/81/152 122/177/152
f 106/157/95 117/174/95 120/246/95
f 103/84/96 120/173/96 116/85/96
f 123/87/97 113/186/97 127/180/97
f 124/86/98 113/166/98 109/165/98
f 68/73/153 104/187/153 73/133/153
f 65/79/154 104/155/154 101/80/154
f 114/168/155 75/89/155 78/136/155
f 114/188/156 74/78/156 108/161/156
f 125/178/157 92/83/157 100/148/157
f 125/189/158 95/88/158 123/87/158
f 121/175/159 84/74/159 87/143/159
f 121/190/160 83/82/160 115/81/160
