# Blender 4.1.0
# www.blender.org
mtllib TruckBody.mtl
o 立方体
v -1.888339 -1.489028 -4.999999
v -1.888339 2.840497 -5.000000
v 1.888334 -1.489028 -5.000000
v 1.888334 2.840497 -5.000001
v -1.888334 -1.489028 5.000001
v -1.888333 2.840498 5.000000
v 1.888339 -1.489028 5.000000
v 1.888340 2.840498 4.999999
v -1.638567 -1.498856 4.234090
v -1.638567 1.721628 4.234090
v 1.638570 -1.498856 4.234089
v 1.638570 1.721628 4.234089
v -1.638566 -1.498855 7.765912
v -1.638565 1.721628 6.375947
v 1.638572 -1.498855 7.765911
v 1.638572 1.721628 6.375947
vn -0.0000 -0.0000 -1.0000
vn 1.0000 -0.0000 -0.0000
vn -0.0000 -0.0000 1.0000
vn -1.0000 -0.0000 -0.0000
vn -0.0000 -1.0000 -0.0000
vn -0.0000 1.0000 -0.0000
vn -0.0000 0.3963 0.9181
vt 0.322891 0.968672
vt 0.000000 0.645781
vt 0.322891 0.645781
vt 0.322891 0.322891
vt 0.000000 0.000000
vt 0.322891 0.000000
vt 0.645781 0.322891
vt 0.967295 0.000000
vt 0.967295 0.322891
vt 0.645781 0.000000
vt 0.000000 0.322891
vt 0.645781 0.883255
vt 0.885961 0.603073
vt 0.885961 0.883255
vt 1.000000 0.603073
vt 0.930841 0.843252
vt 0.645781 0.603073
vt 0.889077 0.322891
vt 0.889077 0.603073
vt 0.506088 0.885961
vt 0.436930 0.645781
vt 0.550969 0.645781
vt 0.322891 0.925963
vt 0.620128 0.645781
vt 0.550969 0.925963
vt 0.000000 0.968672
vt 0.645781 0.645781
vt 1.000000 0.843252
vt 0.436930 0.885961
vt 0.436930 0.925963
vt 0.620128 0.925963
s 0
usemtl マテリアル.013
f 2/1/1 3/2/1 1/3/1
f 4/4/2 7/5/2 3/6/2
f 8/7/3 5/8/3 7/9/3
f 6/7/4 1/6/4 5/10/4
f 7/7/5 1/3/5 3/4/5
f 4/4/6 6/2/6 8/11/6
f 10/12/1 11/13/1 9/14/1
f 11/15/2 16/16/2 15/13/2
f 16/17/7 13/18/7 15/19/7
f 14/20/4 9/21/4 13/22/4
f 15/21/5 9/23/5 11/3/5
f 12/24/6 14/25/6 16/22/6
f 2/1/1 4/26/1 3/2/1
f 4/4/2 8/11/2 7/5/2
f 8/7/3 6/10/3 5/8/3
f 6/7/4 2/4/4 1/6/4
f 7/7/5 5/27/5 1/3/5
f 4/4/6 2/3/6 6/2/6
f 10/12/1 12/17/1 11/13/1
f 11/15/2 12/28/2 16/16/2
f 16/17/7 14/7/7 13/18/7
f 14/20/4 10/29/4 9/21/4
f 15/21/5 13/30/5 9/23/5
f 12/24/6 10/31/6 14/25/6
