# Blender 4.1.0
# www.blender.org
mtllib TruckWheel.mtl
o 円柱
v -1.000000 -0.000000 1.000000
v -2.000000 0.000000 1.000000
v -1.000000 -0.195090 0.980785
v -2.000000 -0.195090 0.980785
v -1.000000 -0.382683 0.923880
v -2.000000 -0.382683 0.923880
v -1.000000 -0.555570 0.831470
v -2.000000 -0.555570 0.831470
v -1.000000 -0.707107 0.707107
v -2.000000 -0.707107 0.707107
v -1.000000 -0.831470 0.555570
v -2.000000 -0.831470 0.555570
v -1.000000 -0.923880 0.382683
v -2.000000 -0.923879 0.382683
v -1.000000 -0.980785 0.195090
v -2.000000 -0.980785 0.195090
v -1.000000 -1.000000 0.000000
v -2.000000 -1.000000 0.000000
v -1.000000 -0.980785 -0.195090
v -2.000000 -0.980785 -0.195090
v -1.000000 -0.923880 -0.382683
v -2.000000 -0.923879 -0.382683
v -1.000000 -0.831470 -0.555570
v -2.000000 -0.831470 -0.555570
v -1.000000 -0.707107 -0.707107
v -2.000000 -0.707107 -0.707107
v -1.000000 -0.555570 -0.831470
v -2.000000 -0.555570 -0.831470
v -1.000000 -0.382683 -0.923880
v -2.000000 -0.382683 -0.923880
v -1.000000 -0.195090 -0.980785
v -2.000000 -0.195090 -0.980785
v -1.000000 -0.000000 -1.000000
v -2.000000 0.000000 -1.000000
v -1.000000 0.195090 -0.980785
v -2.000000 0.195090 -0.980785
v -1.000000 0.382683 -0.923880
v -2.000000 0.382683 -0.923880
v -1.000000 0.555570 -0.831470
v -2.000000 0.555570 -0.831470
v -1.000000 0.707107 -0.707107
v -2.000000 0.707107 -0.707107
v -1.000000 0.831470 -0.555570
v -2.000000 0.831470 -0.555570
v -1.000000 0.923879 -0.382683
v -2.000000 0.923880 -0.382683
v -1.000000 0.980785 -0.195090
v -2.000000 0.980785 -0.195090
v -1.000000 1.000000 0.000000
v -2.000000 1.000000 0.000000
v -1.000000 0.980785 0.195090
v -2.000000 0.980785 0.195090
v -1.000000 0.923879 0.382683
v -2.000000 0.923880 0.382683
v -1.000000 0.831470 0.555570
v -2.000000 0.831470 0.555570
v -1.000000 0.707107 0.707107
v -2.000000 0.707107 0.707107
v -1.000000 0.555570 0.831470
v -2.000000 0.555570 0.831470
v -1.000000 0.382683 0.923880
v -2.000000 0.382683 0.923880
v -1.000000 0.195090 0.980785
v -2.000000 0.195090 0.980785
v 2.000000 -0.000000 1.000000
v 1.000000 0.000000 1.000000
v 2.000000 -0.195090 0.980785
v 1.000000 -0.195090 0.980785
v 2.000000 -0.382683 0.923880
v 1.000000 -0.382683 0.923880
v 2.000000 -0.555570 0.831470
v 1.000000 -0.555570 0.831470
v 2.000000 -0.707107 0.707107
v 1.000000 -0.707107 0.707107
v 2.000000 -0.831470 0.555570
v 1.000000 -0.831470 0.555570
v 2.000000 -0.923880 0.382683
v 1.000000 -0.923879 0.382683
v 2.000000 -0.980785 0.195090
v 1.000000 -0.980785 0.195090
v 2.000000 -1.000000 0.000000
v 1.000000 -1.000000 0.000000
v 2.000000 -0.980785 -0.195090
v 1.000000 -0.980785 -0.195090
v 2.000000 -0.923880 -0.382683
v 1.000000 -0.923879 -0.382683
v 2.000000 -0.831470 -0.555570
v 1.000000 -0.831470 -0.555570
v 2.000000 -0.707107 -0.707107
v 1.000000 -0.707107 -0.707107
v 2.000000 -0.555570 -0.831470
v 1.000000 -0.555570 -0.831470
v 2.000000 -0.382683 -0.923880
v 1.000000 -0.382683 -0.923880
v 2.000000 -0.195090 -0.980785
v 1.000000 -0.195090 -0.980785
v 2.000000 -0.000000 -1.000000
v 1.000000 0.000000 -1.000000
v 2.000000 0.195090 -0.980785
v 1.000000 0.195090 -0.980785
v 2.000000 0.382683 -0.923880
v 1.000000 0.382684 -0.923880
v 2.000000 0.555570 -0.831470
v 1.000000 0.555570 -0.831470
v 2.000000 0.707107 -0.707107
v 1.000000 0.707107 -0.707107
v 2.000000 0.831470 -0.555570
v 1.000000 0.831470 -0.555570
v 2.000000 0.923880 -0.382683
v 1.000000 0.923880 -0.382683
v 2.000000 0.980785 -0.195090
v 1.000000 0.980785 -0.195090
v 2.000000 1.000000 0.000000
v 1.000000 1.000000 0.000000
v 2.000000 0.980785 0.195090
v 1.000000 0.980785 0.195090
v 2.000000 0.923880 0.382683
v 1.000000 0.923880 0.382683
v 2.000000 0.831470 0.555570
v 1.000000 0.831470 0.555570
v 2.000000 0.707107 0.707107
v 1.000000 0.707107 0.707107
v 2.000000 0.555570 0.831470
v 1.000000 0.555570 0.831470
v 2.000000 0.382683 0.923880
v 1.000000 0.382684 0.923880
v 2.000000 0.195090 0.980785
v 1.000000 0.195090 0.980785
vn -0.0000 -0.0980 0.9952
vn -0.0000 -0.2903 0.9569
vn -0.0000 -0.4714 0.8819
vn -0.0000 -0.6344 0.7730
vn -0.0000 -0.7730 0.6344
vn -0.0000 -0.8819 0.4714
vn -0.0000 -0.9569 0.2903
vn -0.0000 -0.9952 0.0980
vn -0.0000 -0.9952 -0.0980
vn -0.0000 -0.9569 -0.2903
vn -0.0000 -0.8819 -0.4714
vn -0.0000 -0.7730 -0.6344
vn -0.0000 -0.6344 -0.7730
vn -0.0000 -0.4714 -0.8819
vn -0.0000 -0.2903 -0.9569
vn -0.0000 -0.0980 -0.9952
vn -0.0000 0.0980 -0.9952
vn -0.0000 0.2903 -0.9569
vn -0.0000 0.4714 -0.8819
vn -0.0000 0.6344 -0.7730
vn -0.0000 0.7730 -0.6344
vn -0.0000 0.8819 -0.4714
vn -0.0000 0.9569 -0.2903
vn -0.0000 0.9952 -0.0980
vn -0.0000 0.9952 0.0980
vn -0.0000 0.9569 0.2903
vn -0.0000 0.8819 0.4714
vn -0.0000 0.7730 0.6344
vn -0.0000 0.6344 0.7730
vn -0.0000 0.4714 0.8819
vn -1.0000 -0.0000 -0.0000
vn -0.0000 0.2903 0.9569
vn -0.0000 0.0980 0.9952
vn 1.0000 -0.0000 -0.0000
vt 1.000000 0.500000
vt 0.968750 1.000000
vt 0.968750 0.500000
vt 0.937500 1.000000
vt 0.937500 0.500000
vt 0.906250 1.000000
vt 0.906250 0.500000
vt 0.875000 1.000000
vt 0.875000 0.500000
vt 0.843750 1.000000
vt 0.843750 0.500000
vt 0.812500 1.000000
vt 0.812500 0.500000
vt 0.781250 1.000000
vt 0.781250 0.500000
vt 0.750000 0.500000
vt 0.718750 1.000000
vt 0.718750 0.500000
vt 0.687500 0.500000
vt 0.687500 1.000000
vt 0.656250 0.500000
vt 0.656250 1.000000
vt 0.625000 0.500000
vt 0.625000 1.000000
vt 0.593750 0.500000
vt 0.593750 1.000000
vt 0.562500 0.500000
vt 0.562500 1.000000
vt 0.531250 0.500000
vt 0.531250 1.000000
vt 0.500000 0.500000
vt 0.500000 1.000000
vt 0.468750 0.500000
vt 0.468750 1.000000
vt 0.437500 0.500000
vt 0.437500 1.000000
vt 0.406250 0.500000
vt 0.406250 1.000000
vt 0.375000 0.500000
vt 0.375000 1.000000
vt 0.343750 0.500000
vt 0.343750 1.000000
vt 0.312500 0.500000
vt 0.312500 1.000000
vt 0.281250 0.500000
vt 0.281250 1.000000
vt 0.250000 0.500000
vt 0.250000 1.000000
vt 0.218750 0.500000
vt 0.187500 1.000000
vt 0.187500 0.500000
vt 0.156250 1.000000
vt 0.156250 0.500000
vt 0.125000 1.000000
vt 0.125000 0.500000
vt 0.093750 1.000000
vt 0.093750 0.500000
vt 0.062500 1.000000
vt 0.062500 0.500000
vt 0.419706 0.419706
vt 0.383337 0.449553
vt 0.419706 0.080294
vt 0.031250 1.000000
vt 0.031250 0.500000
vt 0.000000 1.000000
vt 0.000000 0.500000
vt 0.616663 0.449553
vt 0.658156 0.471731
vt 0.616663 0.050447
vt 0.750000 1.000000
vt 0.218750 1.000000
vt 1.000000 1.000000
vt 0.341844 0.471731
vt 0.296822 0.485388
vt 0.296822 0.014612
vt 0.250000 0.490000
vt 0.250000 0.010000
vt 0.203178 0.485388
vt 0.203178 0.014612
vt 0.158156 0.471731
vt 0.158156 0.028269
vt 0.116663 0.449553
vt 0.080294 0.419706
vt 0.116663 0.050447
vt 0.050447 0.383337
vt 0.080294 0.080294
vt 0.028269 0.341844
vt 0.050447 0.116663
vt 0.014612 0.296822
vt 0.028269 0.158156
vt 0.010000 0.250000
vt 0.014612 0.203178
vt 0.341844 0.028269
vt 0.383337 0.050447
vt 0.449553 0.116663
vt 0.471731 0.158156
vt 0.449553 0.383337
vt 0.485388 0.203178
vt 0.485388 0.296822
vt 0.490000 0.250000
vt 0.471731 0.341844
vt 0.703178 0.485388
vt 0.750000 0.490000
vt 0.750000 0.010000
vt 0.796822 0.485388
vt 0.796822 0.014612
vt 0.841844 0.471731
vt 0.883337 0.449553
vt 0.841844 0.028269
vt 0.919706 0.419706
vt 0.919706 0.080294
vt 0.949553 0.383337
vt 0.949553 0.116663
vt 0.971731 0.341844
vt 0.985388 0.296822
vt 0.971731 0.158156
vt 0.990000 0.250000
vt 0.985388 0.203178
vt 0.883337 0.050447
vt 0.703178 0.014612
vt 0.658156 0.028269
vt 0.580294 0.080294
vt 0.580294 0.419706
vt 0.550447 0.116663
vt 0.550447 0.383337
vt 0.528269 0.158156
vt 0.514612 0.203178
vt 0.528269 0.341844
vt 0.510000 0.250000
vt 0.514612 0.296822
s 0
usemtl マテリアル
f 1/1/1 4/2/1 3/3/1
f 3/3/2 6/4/2 5/5/2
f 5/5/3 8/6/3 7/7/3
f 7/7/4 10/8/4 9/9/4
f 9/9/5 12/10/5 11/11/5
f 11/11/6 14/12/6 13/13/6
f 13/13/7 16/14/7 15/15/7
f 16/14/8 17/16/8 15/15/8
f 17/16/9 20/17/9 19/18/9
f 20/17/10 21/19/10 19/18/10
f 22/20/11 23/21/11 21/19/11
f 24/22/12 25/23/12 23/21/12
f 26/24/13 27/25/13 25/23/13
f 28/26/14 29/27/14 27/25/14
f 30/28/15 31/29/15 29/27/15
f 32/30/16 33/31/16 31/29/16
f 34/32/17 35/33/17 33/31/17
f 36/34/18 37/35/18 35/33/18
f 38/36/19 39/37/19 37/35/19
f 40/38/20 41/39/20 39/37/20
f 42/40/21 43/41/21 41/39/21
f 44/42/22 45/43/22 43/41/22
f 46/44/23 47/45/23 45/43/23
f 48/46/24 49/47/24 47/45/24
f 50/48/25 51/49/25 49/47/25
f 51/49/26 54/50/26 53/51/26
f 53/51/27 56/52/27 55/53/27
f 55/53/28 58/54/28 57/55/28
f 57/55/29 60/56/29 59/57/29
f 59/57/30 62/58/30 61/59/30
f 10/60/31 8/61/31 26/62/31
f 61/59/32 64/63/32 63/64/32
f 63/64/33 2/65/33 1/66/33
f 59/67/34 61/68/34 39/69/34
f 65/1/1 68/2/1 67/3/1
f 67/3/2 70/4/2 69/5/2
f 69/5/3 72/6/3 71/7/3
f 71/7/4 74/8/4 73/9/4
f 73/9/5 76/10/5 75/11/5
f 75/11/6 78/12/6 77/13/6
f 78/12/7 79/15/7 77/13/7
f 79/15/8 82/70/8 81/16/8
f 82/70/9 83/18/9 81/16/9
f 84/17/10 85/19/10 83/18/10
f 86/20/11 87/21/11 85/19/11
f 88/22/12 89/23/12 87/21/12
f 90/24/13 91/25/13 89/23/13
f 92/26/14 93/27/14 91/25/14
f 94/28/15 95/29/15 93/27/15
f 96/30/16 97/31/16 95/29/16
f 98/32/17 99/33/17 97/31/17
f 100/34/18 101/35/18 99/33/18
f 102/36/19 103/37/19 101/35/19
f 104/38/20 105/39/20 103/37/20
f 106/40/21 107/41/21 105/39/21
f 108/42/22 109/43/22 107/41/22
f 110/44/23 111/45/23 109/43/23
f 112/46/24 113/47/24 111/45/24
f 113/47/25 116/71/25 115/49/25
f 116/71/26 117/51/26 115/49/26
f 117/51/27 120/52/27 119/53/27
f 119/53/28 122/54/28 121/55/28
f 121/55/29 124/56/29 123/57/29
f 123/57/30 126/58/30 125/59/30
f 74/60/31 72/61/31 90/62/31
f 125/59/32 128/63/32 127/64/32
f 127/64/33 66/65/33 65/66/33
f 123/67/34 125/68/34 103/69/34
f 1/1/1 2/72/1 4/2/1
f 3/3/2 4/2/2 6/4/2
f 5/5/3 6/4/3 8/6/3
f 7/7/4 8/6/4 10/8/4
f 9/9/5 10/8/5 12/10/5
f 11/11/6 12/10/6 14/12/6
f 13/13/7 14/12/7 16/14/7
f 16/14/8 18/70/8 17/16/8
f 17/16/9 18/70/9 20/17/9
f 20/17/10 22/20/10 21/19/10
f 22/20/11 24/22/11 23/21/11
f 24/22/12 26/24/12 25/23/12
f 26/24/13 28/26/13 27/25/13
f 28/26/14 30/28/14 29/27/14
f 30/28/15 32/30/15 31/29/15
f 32/30/16 34/32/16 33/31/16
f 34/32/17 36/34/17 35/33/17
f 36/34/18 38/36/18 37/35/18
f 38/36/19 40/38/19 39/37/19
f 40/38/20 42/40/20 41/39/20
f 42/40/21 44/42/21 43/41/21
f 44/42/22 46/44/22 45/43/22
f 46/44/23 48/46/23 47/45/23
f 48/46/24 50/48/24 49/47/24
f 50/48/25 52/71/25 51/49/25
f 51/49/26 52/71/26 54/50/26
f 53/51/27 54/50/27 56/52/27
f 55/53/28 56/52/28 58/54/28
f 57/55/29 58/54/29 60/56/29
f 59/57/30 60/56/30 62/58/30
f 6/73/31 4/74/31 32/75/31
f 4/74/31 2/76/31 34/77/31
f 2/76/31 64/78/31 36/79/31
f 64/78/31 62/80/31 38/81/31
f 62/80/31 60/82/31 38/81/31
f 60/82/31 58/83/31 40/84/31
f 38/81/31 60/82/31 40/84/31
f 58/83/31 56/85/31 42/86/31
f 56/85/31 54/87/31 44/88/31
f 42/86/31 56/85/31 44/88/31
f 54/87/31 52/89/31 46/90/31
f 52/89/31 50/91/31 48/92/31
f 46/90/31 52/89/31 48/92/31
f 46/90/31 44/88/31 54/87/31
f 42/86/31 40/84/31 58/83/31
f 38/81/31 36/79/31 64/78/31
f 36/79/31 34/77/31 2/76/31
f 34/77/31 32/75/31 4/74/31
f 32/75/31 30/93/31 6/73/31
f 30/93/31 28/94/31 6/73/31
f 28/94/31 26/62/31 8/61/31
f 6/73/31 28/94/31 8/61/31
f 26/62/31 24/95/31 10/60/31
f 24/95/31 22/96/31 12/97/31
f 10/60/31 24/95/31 12/97/31
f 22/96/31 20/98/31 16/99/31
f 20/98/31 18/100/31 16/99/31
f 16/99/31 14/101/31 22/96/31
f 14/101/31 12/97/31 22/96/31
f 61/59/32 62/58/32 64/63/32
f 63/64/33 64/63/33 2/65/33
f 63/102/34 1/103/34 33/104/34
f 1/103/34 3/105/34 31/106/34
f 3/105/34 5/107/34 31/106/34
f 5/107/34 7/108/34 29/109/34
f 31/106/34 5/107/34 29/109/34
f 7/108/34 9/110/34 25/111/34
f 9/110/34 11/112/34 23/113/34
f 11/112/34 13/114/34 23/113/34
f 13/114/34 15/115/34 21/116/34
f 23/113/34 13/114/34 21/116/34
f 15/115/34 17/117/34 19/118/34
f 19/118/34 21/116/34 15/115/34
f 23/113/34 25/111/34 9/110/34
f 25/111/34 27/119/34 7/108/34
f 27/119/34 29/109/34 7/108/34
f 31/106/34 33/104/34 1/103/34
f 33/104/34 35/120/34 63/102/34
f 35/120/34 37/121/34 63/102/34
f 37/121/34 39/69/34 61/68/34
f 63/102/34 37/121/34 61/68/34
f 39/69/34 41/122/34 57/123/34
f 41/122/34 43/124/34 55/125/34
f 43/124/34 45/126/34 55/125/34
f 45/126/34 47/127/34 53/128/34
f 55/125/34 45/126/34 53/128/34
f 47/127/34 49/129/34 51/130/34
f 51/130/34 53/128/34 47/127/34
f 55/125/34 57/123/34 41/122/34
f 57/123/34 59/67/34 39/69/34
f 65/1/1 66/72/1 68/2/1
f 67/3/2 68/2/2 70/4/2
f 69/5/3 70/4/3 72/6/3
f 71/7/4 72/6/4 74/8/4
f 73/9/5 74/8/5 76/10/5
f 75/11/6 76/10/6 78/12/6
f 78/12/7 80/14/7 79/15/7
f 79/15/8 80/14/8 82/70/8
f 82/70/9 84/17/9 83/18/9
f 84/17/10 86/20/10 85/19/10
f 86/20/11 88/22/11 87/21/11
f 88/22/12 90/24/12 89/23/12
f 90/24/13 92/26/13 91/25/13
f 92/26/14 94/28/14 93/27/14
f 94/28/15 96/30/15 95/29/15
f 96/30/16 98/32/16 97/31/16
f 98/32/17 100/34/17 99/33/17
f 100/34/18 102/36/18 101/35/18
f 102/36/19 104/38/19 103/37/19
f 104/38/20 106/40/20 105/39/20
f 106/40/21 108/42/21 107/41/21
f 108/42/22 110/44/22 109/43/22
f 110/44/23 112/46/23 111/45/23
f 112/46/24 114/48/24 113/47/24
f 113/47/25 114/48/25 116/71/25
f 116/71/26 118/50/26 117/51/26
f 117/51/27 118/50/27 120/52/27
f 119/53/28 120/52/28 122/54/28
f 121/55/29 122/54/29 124/56/29
f 123/57/30 124/56/30 126/58/30
f 70/73/31 68/74/31 96/75/31
f 68/74/31 66/76/31 98/77/31
f 66/76/31 128/78/31 100/79/31
f 128/78/31 126/80/31 102/81/31
f 126/80/31 124/82/31 102/81/31
f 124/82/31 122/83/31 104/84/31
f 102/81/31 124/82/31 104/84/31
f 122/83/31 120/85/31 106/86/31
f 120/85/31 118/87/31 108/88/31
f 106/86/31 120/85/31 108/88/31
f 118/87/31 116/89/31 110/90/31
f 116/89/31 114/91/31 112/92/31
f 110/90/31 116/89/31 112/92/31
f 110/90/31 108/88/31 118/87/31
f 106/86/31 104/84/31 122/83/31
f 102/81/31 100/79/31 128/78/31
f 100/79/31 98/77/31 66/76/31
f 98/77/31 96/75/31 68/74/31
f 96/75/31 94/93/31 70/73/31
f 94/93/31 92/94/31 70/73/31
f 92/94/31 90/62/31 72/61/31
f 70/73/31 92/94/31 72/61/31
f 90/62/31 88/95/31 74/60/31
f 88/95/31 86/96/31 76/97/31
f 74/60/31 88/95/31 76/97/31
f 86/96/31 84/98/31 80/99/31
f 84/98/31 82/100/31 80/99/31
f 80/99/31 78/101/31 86/96/31
f 78/101/31 76/97/31 86/96/31
f 125/59/32 126/58/32 128/63/32
f 127/64/33 128/63/33 66/65/33
f 127/102/34 65/103/34 97/104/34
f 65/103/34 67/105/34 95/106/34
f 67/105/34 69/107/34 95/106/34
f 69/107/34 71/108/34 93/109/34
f 95/106/34 69/107/34 93/109/34
f 71/108/34 73/110/34 89/111/34
f 73/110/34 75/112/34 87/113/34
f 75/112/34 77/114/34 87/113/34
f 77/114/34 79/115/34 85/116/34
f 87/113/34 77/114/34 85/116/34
f 79/115/34 81/117/34 83/118/34
f 83/118/34 85/116/34 79/115/34
f 87/113/34 89/111/34 73/110/34
f 89/111/34 91/119/34 71/108/34
f 91/119/34 93/109/34 71/108/34
f 95/106/34 97/104/34 65/103/34
f 97/104/34 99/120/34 127/102/34
f 99/120/34 101/121/34 127/102/34
f 101/121/34 103/69/34 125/68/34
f 127/102/34 101/121/34 125/68/34
f 103/69/34 105/122/34 121/123/34
f 105/122/34 107/124/34 119/125/34
f 107/124/34 109/126/34 119/125/34
f 109/126/34 111/127/34 117/128/34
f 119/125/34 109/126/34 117/128/34
f 111/127/34 113/129/34 115/130/34
f 115/130/34 117/128/34 111/127/34
f 119/125/34 121/123/34 105/122/34
f 121/123/34 123/67/34 103/69/34
