# Blender 4.1.1
# www.blender.org
mtllib EnemyWalk.mtl
o Cube
v 0.000000 0.866025 0.500000
v 0.000000 0.500000 0.866025
v 0.000000 0.000000 1.000000
v 0.000000 -0.500000 0.866025
v 0.000000 -0.866025 0.500000
v -0.433013 0.866025 0.250000
v -0.750000 0.500000 0.433013
v -0.866025 0.000000 0.500000
v -0.750000 -0.500000 0.433013
v -0.433013 -0.866025 0.250000
v -0.433013 0.866025 -0.250000
v -0.750000 0.500000 -0.433013
v -0.866025 0.000000 -0.500000
v -0.750000 -0.500000 -0.433013
v -0.433013 -0.866025 -0.250000
v 0.000000 0.866025 -0.500000
v 0.000000 0.500000 -0.866025
v 0.000000 0.000000 -1.000000
v 0.000000 -0.500000 -0.866025
v 0.000000 -0.866025 -0.500000
v 0.000000 1.000000 0.000000
v 0.433013 0.866025 -0.250000
v 0.750000 0.500000 -0.433013
v 0.866026 0.000000 -0.500000
v 0.750000 -0.500000 -0.433013
v 0.433013 -0.866025 -0.250000
v 0.433013 0.866025 0.250000
v 0.750000 0.500000 0.433013
v 0.866025 0.000000 0.500000
v 0.750000 -0.500000 0.433013
v 0.433013 -0.866025 0.250000
v 0.000000 -1.000000 0.000000
vn -0.0000 0.8295 0.5585
vn -0.0000 0.4671 0.8842
vn -0.0000 -0.0000 1.0000
vn -0.0000 -0.4671 0.8842
vn -0.0000 -0.8295 0.5585
vn -0.4837 0.8295 0.2793
vn -0.7657 0.4671 0.4421
vn -0.8660 -0.0000 0.5000
vn -0.7657 -0.4671 0.4421
vn -0.4837 -0.8295 0.2793
vn -0.4837 0.8295 -0.2793
vn -0.7657 0.4671 -0.4421
vn -0.8660 -0.0000 -0.5000
vn -0.7657 -0.4671 -0.4421
vn -0.4837 -0.8295 -0.2793
vn -0.0000 0.8295 -0.5585
vn -0.0000 0.4671 -0.8842
vn -0.0000 -0.0000 -1.0000
vn -0.0000 -0.4671 -0.8842
vn -0.0000 -0.8295 -0.5585
vn -0.0000 1.0000 -0.0000
vn 0.4837 0.8295 -0.2793
vn 0.7657 0.4671 -0.4421
vn 0.8660 -0.0000 -0.5000
vn 0.7657 -0.4671 -0.4421
vn 0.4837 -0.8295 -0.2793
vn 0.4837 0.8295 0.2793
vn 0.7657 0.4671 0.4421
vn 0.8660 -0.0000 0.5000
vn 0.7657 -0.4671 0.4421
vn 0.4837 -0.8295 0.2793
vn -0.0000 -1.0000 -0.0000
vt 0.666667 0.333333
vt 0.500000 0.166667
vt 0.666667 0.166667
vt 0.666667 0.500000
vt 0.500000 0.666667
vt 0.500000 0.500000
vt 0.666667 0.833333
vt 0.583333 1.000000
vt 0.500000 0.833333
vt 0.583333 0.000000
vt 0.500000 0.333333
vt 0.666667 0.666667
vt 0.416667 1.000000
vt 0.333333 0.833333
vt 0.416667 0.000000
vt 0.333333 0.166667
vt 0.333333 0.333333
vt 0.333333 0.666667
vt 0.333333 0.500000
vt 0.250000 0.000000
vt 0.166667 0.166667
vt 0.166667 0.333333
vt 0.166667 0.666667
vt 0.166667 0.500000
vt 0.250000 1.000000
vt 0.166667 0.833333
vt 0.083333 0.000000
vt 0.000000 0.166667
vt 0.000000 0.333333
vt 0.000000 0.666667
vt 0.000000 0.500000
vt 0.083333 1.000000
vt 0.000000 0.833333
vt 0.916667 0.000000
vt 1.000000 0.166667
vt 0.833333 0.166667
vt 1.000000 0.333333
vt 0.833333 0.500000
vt 0.833333 0.333333
vt 1.000000 0.833333
vt 0.833333 0.666667
vt 1.000000 0.666667
vt 1.000000 0.500000
vt 0.916667 1.000000
vt 0.833333 0.833333
vt 0.750000 1.000000
vt 0.750000 0.000000
s 1
usemtl Material
f 4/1/4 10/2/10 5/3/5
f 3/4/3 7/5/7 8/6/8
f 1/7/1 21/8/21 6/9/6
f 32/10/32 5/3/5 10/2/10
f 3/4/3 9/11/9 4/1/4
f 1/7/1 7/5/7 2/12/2
f 6/9/6 21/13/21 11/14/11
f 32/15/32 10/2/10 15/16/15
f 8/6/8 14/17/14 9/11/9
f 6/9/6 12/18/12 7/5/7
f 10/2/10 14/17/14 15/16/15
f 7/5/7 13/19/13 8/6/8
f 32/20/32 15/16/15 20/21/20
f 13/19/13 19/22/19 14/17/14
f 11/14/11 17/23/17 12/18/12
f 14/17/14 20/21/20 15/16/15
f 13/19/13 17/23/17 18/24/18
f 11/14/11 21/25/21 16/26/16
f 32/27/32 20/21/20 26/28/26
f 18/24/18 25/29/25 19/22/19
f 16/26/16 23/30/23 17/23/17
f 19/22/19 26/28/26 20/21/20
f 17/23/17 24/31/24 18/24/18
f 16/26/16 21/32/21 22/33/22
f 32/34/32 26/35/26 31/36/31
f 25/37/25 29/38/29 30/39/30
f 22/40/22 28/41/28 23/42/23
f 25/37/25 31/36/31 26/35/26
f 23/42/23 29/38/29 24/43/24
f 22/40/22 21/44/21 27/45/27
f 29/38/29 4/1/4 30/39/30
f 27/45/27 2/12/2 28/41/28
f 30/39/30 5/3/5 31/36/31
f 29/38/29 2/12/2 3/4/3
f 27/45/27 21/46/21 1/7/1
f 32/47/32 31/36/31 5/3/5
f 4/1/4 9/11/9 10/2/10
f 3/4/3 2/12/2 7/5/7
f 3/4/3 8/6/8 9/11/9
f 1/7/1 6/9/6 7/5/7
f 8/6/8 13/19/13 14/17/14
f 6/9/6 11/14/11 12/18/12
f 10/2/10 9/11/9 14/17/14
f 7/5/7 12/18/12 13/19/13
f 13/19/13 18/24/18 19/22/19
f 11/14/11 16/26/16 17/23/17
f 14/17/14 19/22/19 20/21/20
f 13/19/13 12/18/12 17/23/17
f 18/24/18 24/31/24 25/29/25
f 16/26/16 22/33/22 23/30/23
f 19/22/19 25/29/25 26/28/26
f 17/23/17 23/30/23 24/31/24
f 25/37/25 24/43/24 29/38/29
f 22/40/22 27/45/27 28/41/28
f 25/37/25 30/39/30 31/36/31
f 23/42/23 28/41/28 29/38/29
f 29/38/29 3/4/3 4/1/4
f 27/45/27 1/7/1 2/12/2
f 30/39/30 4/1/4 5/3/5
f 29/38/29 28/41/28 2/12/2
