# Blender 4.1.1
# www.blender.org
mtllib PlayerNormalBullet.mtl
o Cube
v 0.100000 0.083686 0.113874
v 0.083686 0.100000 0.113874
v 0.055795 0.055795 0.250000
v 0.083686 -0.100000 0.113874
v 0.100000 -0.083686 0.113874
v 0.055795 -0.055795 0.250000
v -0.055795 0.055795 0.250000
v -0.083686 0.100000 0.113874
v -0.100000 0.083686 0.113874
v -0.055795 -0.055795 0.250000
v -0.100000 -0.083686 0.113874
v -0.083686 -0.100000 0.113874
v 0.100000 0.083686 -0.209215
v 0.047297 0.047297 -0.190595
v 0.083686 0.100000 -0.209215
v 0.047297 -0.047297 -0.190595
v 0.100000 -0.083686 -0.209215
v 0.083686 -0.100000 -0.209215
v -0.047297 0.047297 -0.190595
v -0.100000 0.083686 -0.209215
v -0.083686 0.100000 -0.209215
v -0.083686 -0.100000 -0.209215
v -0.100000 -0.083686 -0.209215
v -0.047297 -0.047297 -0.190595
vn -0.0000 -1.0000 -0.0000
vn -0.0000 -0.0000 -1.0000
vn -1.0000 -0.0000 -0.0000
vn -0.0000 1.0000 -0.0000
vn -0.0000 -0.0000 1.0000
vn 0.6622 0.6622 0.3507
vn 0.6622 -0.6622 0.3507
vn -0.6622 0.6622 0.3507
vn -0.6622 -0.6622 0.3507
vn -0.2004 -0.2004 -0.9590
vn -0.2004 0.2004 -0.9590
vn 0.2004 -0.2004 -0.9590
vn 0.2004 0.2004 -0.9590
vn -0.0000 0.3331 -0.9429
vn 0.7071 -0.7071 -0.0000
vn 0.9511 -0.0000 0.3089
vn 0.3331 -0.0000 -0.9429
vn -0.9511 -0.0000 0.3089
vn -0.3331 -0.0000 -0.9429
vn -0.7071 0.7071 -0.0000
vn -0.0000 0.9511 0.3089
vn -0.7071 -0.7071 -0.0000
vn -0.0000 -0.3331 -0.9429
vn 0.7071 0.7071 -0.0000
vn -0.0000 -0.9511 0.3089
vn 1.0000 -0.0000 -0.0000
vt 0.029439 0.253482
vt 0.331470 0.434540
vt 0.029439 0.434540
vt 0.456014 0.265805
vt 0.626715 0.095105
vt 0.626715 0.265805
vt 0.098259 0.463979
vt 0.331470 0.766010
vt 0.098259 0.766010
vt 0.692380 0.692380
vt 0.873438 0.390349
vt 0.873438 0.692380
vt 0.079769 0.000000
vt 0.281140 0.126920
vt 0.079769 0.126920
vt 0.891993 0.721819
vt 1.000000 0.642050
vt 0.000000 0.234927
vt 1.000000 0.440679
vt 0.891993 0.360910
vt 0.360910 0.234927
vt 0.331470 0.253482
vt 0.390349 0.000000
vt 0.456014 0.095105
vt 0.360910 0.029439
vt 0.692380 0.000000
vt 0.721819 0.029439
vt 0.390349 0.360910
vt 0.360910 0.331470
vt 0.721819 0.331470
vt 0.692380 0.360910
vt 0.360910 0.721819
vt 0.594121 0.692380
vt 0.594121 0.721819
vt 0.692380 0.642050
vt 0.594121 0.390349
vt 0.692380 0.440679
vt 0.000000 0.514309
vt 0.098259 0.434540
vt 0.098259 0.795450
vt 0.331470 0.795450
vt 0.594121 0.360910
vt 0.360910 0.390349
vt 0.360910 0.360910
vt 0.360910 0.692380
vt 0.331470 0.463979
vt 0.692380 0.390349
vt 0.281140 0.000000
vt 0.000000 0.715680
s 0
usemtl Material
f 4/1/1 22/2/1 18/3/1
f 19/4/2 16/5/2 24/6/2
f 9/7/3 23/8/3 11/9/3
f 15/10/4 8/11/4 2/12/4
f 3/13/5 10/14/5 6/15/5
f 1/16/6 2/12/6 3/17/6
f 4/1/7 5/18/7 6/15/7
f 7/19/8 8/11/8 9/20/8
f 10/14/9 11/21/9 12/22/9
f 13/23/10 14/24/10 15/25/10
f 16/5/11 17/26/11 18/27/11
f 19/4/12 20/28/12 21/29/12
f 22/30/13 23/31/13 24/6/13
f 22/30/14 16/5/14 18/27/14
f 18/32/15 5/33/15 4/34/15
f 6/35/16 1/36/16 3/37/16
f 23/31/17 19/4/17 24/6/17
f 11/9/18 7/38/18 9/7/18
f 13/23/19 16/5/19 14/24/19
f 21/2/20 9/7/20 8/39/20
f 8/11/21 3/17/21 2/12/21
f 12/40/22 23/8/22 22/41/22
f 15/25/23 19/4/23 21/29/23
f 2/42/24 13/43/24 15/44/24
f 4/1/25 10/14/25 12/22/25
f 13/43/26 5/33/26 17/45/26
f 4/1/1 12/22/1 22/2/1
f 19/4/2 14/24/2 16/5/2
f 9/7/3 20/46/3 23/8/3
f 15/10/4 21/47/4 8/11/4
f 3/13/5 7/48/5 10/14/5
f 22/30/14 24/6/14 16/5/14
f 18/32/15 17/45/15 5/33/15
f 6/35/16 5/33/16 1/36/16
f 23/31/17 20/28/17 19/4/17
f 11/9/18 10/49/18 7/38/18
f 13/23/19 17/26/19 16/5/19
f 21/2/20 20/46/20 9/7/20
f 8/11/21 7/19/21 3/17/21
f 12/40/22 11/9/22 23/8/22
f 15/25/23 14/24/23 19/4/23
f 2/42/24 1/36/24 13/43/24
f 4/1/25 6/15/25 10/14/25
f 13/43/26 1/36/26 5/33/26
