# Blender 4.1.1
# www.blender.org
mtllib Tower.mtl
o 円柱
v 0.250000 5.598722 -0.250000
v 0.000000 0.000000 0.500000
v 0.000000 8.000000 0.500000
v 0.250000 6.435539 -0.250000
v 0.250000 5.598722 0.250000
v -0.191342 0.000000 0.461940
v -0.191342 8.000000 0.461940
v 0.250000 6.435539 0.250000
v -0.250000 5.598722 -0.250000
v -0.353553 0.000000 0.353553
v -0.353553 8.000000 0.353553
v -0.250000 6.435539 -0.250000
v -0.461940 0.000000 0.191342
v -0.250000 5.598722 0.250000
v -0.250000 6.435539 0.250000
v -0.461940 8.000000 0.191342
v -0.500000 0.000000 0.000000
v -0.500000 8.000000 0.000000
v -0.461940 0.000000 -0.191342
v -0.461940 8.000000 -0.191342
v -0.353553 0.000000 -0.353553
v -0.353553 8.000000 -0.353553
v -0.191342 0.000000 -0.461940
v -0.191342 8.000000 -0.461940
v 0.000000 0.000000 -0.500000
v 0.000000 8.000000 -0.500000
v 0.191342 0.000000 -0.461940
v 0.191342 8.000000 -0.461940
v 0.353553 0.000000 -0.353553
v 0.353553 8.000000 -0.353553
v 0.461940 0.000000 -0.191342
v 0.461940 8.000000 -0.191342
v 0.500000 0.000000 0.000000
v 0.500000 8.000000 0.000000
v 0.461940 0.000000 0.191342
v 0.461940 8.000000 0.191342
v 0.353553 0.000000 0.353553
v 0.353553 8.000000 0.353553
v 0.191342 0.000000 0.461940
v 0.191342 8.000000 0.461940
v -0.000000 5.269805 0.779890
v -0.298451 5.269805 0.720524
v -0.551466 5.269805 0.551466
v -0.720525 5.269805 0.298451
v -0.779890 5.269805 -0.000000
v -0.720525 5.269805 -0.298451
v -0.551466 5.269805 -0.551466
v -0.298451 5.269805 -0.720525
v -0.000000 5.269805 -0.779891
v 0.298451 5.269805 -0.720525
v 0.551466 5.269805 -0.551466
v 0.720525 5.269805 -0.298451
v 0.779890 5.269805 -0.000000
v 0.720525 5.269805 0.298451
v 0.551466 5.269805 0.551466
v 0.298451 5.269805 0.720524
v 0.000000 5.598722 0.500000
v 0.000000 6.435539 0.500000
v -0.191342 5.598722 0.461940
v -0.191342 6.435539 0.461940
v -0.250000 6.435539 0.422746
v -0.250000 5.598722 0.422746
v -0.422746 5.598722 0.250000
v -0.422746 6.435539 0.250000
v -0.461940 5.598722 0.191342
v -0.461940 6.435539 0.191342
v -0.500000 5.598722 0.000000
v -0.500000 6.435539 0.000000
v -0.461940 5.598722 -0.191342
v -0.461940 6.435539 -0.191342
v -0.422746 6.435539 -0.250000
v -0.422746 5.598722 -0.250000
v -0.250000 6.435539 -0.422746
v -0.250000 5.598722 -0.422746
v -0.191342 5.598722 -0.461940
v -0.191342 6.435539 -0.461940
v 0.000000 5.598722 -0.500000
v 0.000000 6.435539 -0.500000
v 0.191342 5.598722 -0.461940
v 0.191342 6.435539 -0.461940
v 0.250000 6.435539 -0.422746
v 0.191807 5.598722 -0.461629
v 0.250000 5.613094 -0.422746
v 0.422746 5.598722 -0.250000
v 0.422746 6.435539 -0.250000
v 0.461940 5.598722 -0.191342
v 0.461940 6.435539 -0.191342
v 0.500000 5.598722 0.000000
v 0.500000 6.435539 0.000000
v 0.461940 5.598722 0.191342
v 0.461940 6.435539 0.191342
v 0.422746 6.435539 0.250000
v 0.422746 5.598722 0.250000
v 0.250000 8.000000 0.250000
v -0.250000 8.000000 0.250000
v 0.250000 8.000000 -0.250000
v -0.250000 8.000000 -0.250000
v 0.250000 5.598722 0.422746
v 0.250000 6.435539 0.422746
v 0.191342 6.435539 0.461940
v 0.191342 5.598722 0.461940
v 0.720525 5.562203 0.298451
v -0.779890 5.562203 -0.000000
v -0.551466 5.562203 -0.551466
v -0.000000 5.562203 -0.779891
v 0.551466 5.562203 -0.551466
v 0.779890 5.562203 -0.000000
v 0.551466 5.562203 0.551466
v 0.298451 5.562203 0.720524
v -0.551466 5.562203 0.551466
v -0.000000 5.562203 0.779890
v -0.298451 5.562203 0.720524
v -0.720525 5.562203 0.298451
v -0.720525 5.562203 -0.298451
v -0.298451 5.562203 -0.720525
v 0.298451 5.562203 -0.720525
v 0.720525 5.562203 -0.298451
v 0.461940 4.807328 0.191342
v -0.500000 4.807328 0.000000
v -0.353553 4.807328 -0.353553
v 0.000000 4.807328 -0.500000
v 0.353553 4.807328 -0.353553
v 0.500000 4.807328 0.000000
v 0.353553 4.807328 0.353553
v 0.191342 4.807328 0.461940
v -0.353553 4.807328 0.353553
v 0.000000 4.807328 0.500000
v -0.191342 4.807328 0.461940
v -0.461940 4.807328 0.191342
v -0.461940 4.807328 -0.191342
v -0.191342 4.807328 -0.461940
v 0.191342 4.807328 -0.461940
v 0.461940 4.807328 -0.191342
v 0.461940 4.968286 0.191342
v -0.500000 4.968286 0.000000
v -0.353553 4.968286 -0.353553
v 0.000000 4.968286 -0.500000
v 0.353553 4.968286 -0.353553
v 0.500000 4.968286 0.000000
v 0.353553 4.968286 0.353553
v 0.191342 4.968286 0.461940
v -0.353553 4.968286 0.353553
v 0.000000 4.968286 0.500000
v -0.191342 4.968286 0.461940
v -0.461940 4.968286 0.191342
v -0.461940 4.968286 -0.191342
v -0.191342 4.968286 -0.461940
v 0.191342 4.968286 -0.461940
v 0.461940 4.968286 -0.191342
vn -0.1951 -0.0000 0.9808
vn -0.1498 0.6408 0.7530
vn 0.8880 0.0788 0.4530
vn -0.4530 0.0788 -0.8880
vn -0.9808 -0.0000 0.1951
vn -0.7530 0.6408 0.1498
vn -0.9808 -0.0000 -0.1951
vn -0.7530 0.6408 -0.1498
vn -0.9197 -0.0000 0.3927
vn 0.8880 0.0788 -0.4530
vn -0.1951 -0.0000 -0.9808
vn -0.1498 0.6408 -0.7530
vn 0.1951 -0.0000 -0.9808
vn 0.1498 0.6408 -0.7530
vn -0.3927 -0.0000 -0.9197
vn 0.9197 -0.0000 0.3927
vn 0.9808 -0.0000 -0.1951
vn 0.7530 0.6408 -0.1498
vn 0.9808 -0.0000 0.1951
vn 0.7530 0.6408 0.1498
vn 0.4530 0.0788 -0.8880
vn -0.0000 1.0000 -0.0000
vn -0.3927 -0.0000 0.9197
vn 0.1951 -0.0000 0.9808
vn 0.1498 0.6408 0.7530
vn -0.0000 -1.0000 -0.0000
vn -0.5556 -0.0000 -0.8315
vn -0.8315 -0.0000 -0.5556
vn -0.8315 -0.0000 0.5556
vn -0.5556 -0.0000 0.8315
vn 0.5556 -0.0000 0.8315
vn 0.8315 -0.0000 0.5556
vn 0.8315 -0.0000 -0.5556
vn 0.5556 -0.0000 -0.8315
vn -0.0000 -0.0000 -1.0000
vn -1.0000 -0.0000 -0.0000
vn 1.0000 -0.0000 -0.0000
vn -0.0000 -0.0000 1.0000
vn -0.1771 -0.4196 0.8903
vn -0.5043 -0.4196 0.7547
vn -0.7547 -0.4196 0.5043
vn -0.8903 -0.4196 0.1771
vn -0.8903 -0.4196 -0.1771
vn -0.7547 -0.4196 -0.5043
vn -0.5043 -0.4196 -0.7547
vn -0.1771 -0.4196 -0.8903
vn 0.1771 -0.4196 -0.8903
vn 0.5043 -0.4196 -0.7547
vn 0.7547 -0.4196 -0.5043
vn 0.8903 -0.4196 -0.1771
vn 0.8903 -0.4196 0.1771
vn 0.7547 -0.4196 0.5043
vn 0.5043 -0.4196 0.7547
vn 0.1771 -0.4196 0.8903
vn -0.5528 0.1000 0.8273
vn -0.4265 0.6408 0.6384
vn 0.9870 -0.0000 0.1606
vn -0.6384 0.6408 0.4265
vn -0.8273 0.1000 0.5528
vn -0.1606 -0.0000 -0.9870
vn -0.8273 0.1000 -0.5528
vn -0.6384 0.6408 -0.4265
vn -0.8520 -0.0409 0.5220
vn -0.4265 0.6408 -0.6384
vn -0.5528 0.1000 -0.8273
vn 0.9870 -0.0000 -0.1606
vn 0.5528 0.1000 -0.8273
vn 0.4265 0.6408 -0.6384
vn 0.4266 0.6407 -0.6384
vn -0.5220 -0.0409 -0.8520
vn 0.3479 0.5813 -0.7355
vn 0.6384 0.6408 -0.4265
vn 0.8273 0.1000 -0.5528
vn 0.8520 -0.0409 0.5220
vn 0.8273 0.1000 0.5528
vn 0.6384 0.6408 0.4265
vn 0.1606 -0.0000 -0.9870
vn 0.4265 0.6408 0.6384
vn 0.5528 0.1000 0.8273
vn -0.5220 -0.0409 0.8520
vn -0.2887 0.9541 0.0794
vn 0.0002 1.0000 -0.0000
vt 0.409327 0.000170
vt 0.295596 0.051315
vt 0.295596 0.000170
vt 0.204749 0.000170
vt 0.234762 0.051315
vt 0.204749 0.051315
vt 0.409327 0.102459
vt 0.295596 0.069810
vt 0.204749 0.153604
vt 0.295596 0.135109
vt 0.409327 0.153604
vt 0.295596 0.204749
vt 0.295596 0.153604
vt 0.234762 0.204749
vt 0.234762 0.153604
vt 0.409327 0.204749
vt 0.295596 0.255893
vt 0.234762 0.255893
vt 0.204749 0.204749
vt 0.204749 0.307038
vt 0.234762 0.274388
vt 0.295596 0.274388
vt 0.204749 0.358182
vt 0.409327 0.307038
vt 0.295596 0.339688
vt 0.409327 0.358182
vt 0.295596 0.409327
vt 0.295596 0.358182
vt 0.204749 0.409327
vt 0.234762 0.358182
vt 0.234762 0.409327
vt 0.409327 0.409327
vt 0.295596 0.460471
vt 0.234762 0.460471
vt 0.204749 0.511616
vt 0.235807 0.478966
vt 0.295596 0.478966
vt 0.295596 0.544266
vt 0.234762 0.544266
vt 0.409327 0.613905
vt 0.295596 0.562761
vt 0.409327 0.562761
vt 0.204749 0.613905
vt 0.234762 0.562761
vt 0.234762 0.613905
vt 0.295596 0.665050
vt 0.295596 0.613905
vt 0.204749 0.665050
vt 0.234762 0.665050
vt 0.409327 0.716194
vt 0.295596 0.683544
vt 0.614587 0.231107
vt 0.671004 0.165699
vt 0.780115 0.328996
vt 0.970505 0.083680
vt 0.999830 0.231107
vt 0.943412 0.219884
vt 0.204749 0.716194
vt 0.295596 0.748844
vt 0.234762 0.748844
vt 0.409327 0.767339
vt 0.295596 0.818483
vt 0.295596 0.767339
vt 0.204749 0.767339
vt 0.234762 0.818483
vt 0.204749 0.818483
vt 0.711400 0.643571
vt 0.438993 0.697756
vt 0.493178 0.970164
vt 0.102460 0.818483
vt 0.102460 0.767339
vt 0.102460 0.716194
vt 0.102459 0.665050
vt 0.102459 0.613905
vt 0.204749 0.562761
vt 0.102459 0.562761
vt 0.102459 0.511616
vt 0.204749 0.460471
vt 0.102459 0.460471
vt 0.102459 0.409327
vt 0.102459 0.358182
vt 0.102459 0.307038
vt 0.204749 0.255893
vt 0.102459 0.255893
vt 0.102459 0.204749
vt 0.102459 0.153604
vt 0.204749 0.102459
vt 0.102459 0.102459
vt 0.102459 0.051315
vt 0.102459 0.000170
vt 0.614927 0.385754
vt 0.614927 0.590332
vt 0.614246 0.204749
vt 0.409668 0.204749
vt 0.511957 0.204749
vt 0.614587 0.385754
vt 0.614587 0.590332
vt 0.614246 0.613905
vt 0.409668 0.409327
vt 0.409668 0.613905
vt 0.614246 0.409327
vt 0.511957 0.409327
vt 0.614246 0.589192
vt 0.614246 0.510978
vt 0.614246 0.000170
vt 0.614246 0.180748
vt 0.614587 0.590332
vt 0.590246 0.000170
vt 0.433668 0.000170
vt 0.511957 0.613905
vt 0.409668 0.433327
vt 0.409668 0.000170
vt 0.409668 0.024171
vt 0.409668 0.180748
vt 0.076887 0.051315
vt 0.076887 0.000170
vt 0.076887 0.102459
vt 0.076887 0.153604
vt 0.076887 0.204749
vt 0.076887 0.255893
vt 0.076887 0.307038
vt 0.076887 0.358182
vt 0.076887 0.409327
vt 0.076887 0.460471
vt 0.076887 0.511616
vt 0.076887 0.562761
vt 0.076887 0.613905
vt 0.076887 0.665050
vt 0.076887 0.716194
vt 0.076887 0.767339
vt 0.076887 0.818483
vt 0.051315 0.767339
vt 0.000170 0.818484
vt 0.000170 0.767339
vt 0.051315 0.716194
vt 0.000170 0.716194
vt 0.051315 0.665050
vt 0.000170 0.665050
vt 0.051315 0.613905
vt 0.000170 0.613905
vt 0.051315 0.562761
vt 0.000170 0.562761
vt 0.051315 0.511616
vt 0.000170 0.511616
vt 0.051315 0.460471
vt 0.000170 0.460471
vt 0.051315 0.409327
vt 0.000170 0.409327
vt 0.051315 0.358182
vt 0.000170 0.358182
vt 0.051315 0.307038
vt 0.000170 0.307038
vt 0.051315 0.255893
vt 0.000170 0.255893
vt 0.051315 0.204749
vt 0.000170 0.204749
vt 0.051315 0.153604
vt 0.000170 0.153604
vt 0.051315 0.102459
vt 0.000170 0.102459
vt 0.051315 0.051315
vt 0.000170 0.051315
vt 0.051315 0.000170
vt 0.000170 0.000170
vt 0.051315 0.818484
vt 0.409327 0.051315
vt 0.234762 0.000170
vt 0.234762 0.069809
vt 0.234762 0.135109
vt 0.409327 0.255893
vt 0.234762 0.339688
vt 0.409327 0.460471
vt 0.409327 0.511616
vt 0.234762 0.460618
vt 0.409327 0.665050
vt 0.234762 0.683544
vt 0.970505 0.301903
vt 0.916319 0.356088
vt 0.845523 0.385413
vt 0.768893 0.385413
vt 0.698097 0.356088
vt 0.643912 0.301903
vt 0.614587 0.154477
vt 0.643912 0.083681
vt 0.698097 0.029495
vt 0.768893 0.000170
vt 0.845523 0.000170
vt 0.916319 0.029495
vt 0.834301 0.056588
vt 0.999830 0.154477
vt 0.234762 0.767339
vt 0.409327 0.818483
vt 0.563974 0.999489
vt 0.640604 0.999489
vt 0.711400 0.970164
vt 0.765586 0.915979
vt 0.794911 0.845182
vt 0.794911 0.768553
vt 0.765586 0.697756
vt 0.640604 0.614246
vt 0.563974 0.614246
vt 0.493178 0.643571
vt 0.409668 0.768553
vt 0.409668 0.845182
vt 0.438992 0.915979
vt 0.590246 0.204749
vt 0.433668 0.204749
vt 0.590245 0.409327
vt 0.433668 0.409327
vt 0.614246 0.433150
vt 0.614246 0.589002
vt 0.614246 0.102460
vt 0.614246 0.024171
vt 0.511957 0.000170
vt 0.433668 0.613905
vt 0.590246 0.613905
vt 0.409668 0.511616
vt 0.409668 0.589905
vt 0.409668 0.102460
s 0
usemtl マテリアル
f 3/1/1 60/2/1 58/3/1
f 41/4/2 59/5/2 42/6/2
f 11/7/3 42/6/3 61/8/3
f 44/9/4 11/7/4 64/10/4
f 16/11/5 68/12/5 66/13/5
f 67/14/6 44/9/6 65/15/6
f 18/16/7 70/17/7 68/12/7
f 69/18/8 45/19/8 67/14/8
f 47/20/9 72/21/9 71/22/9
f 48/23/10 22/24/10 73/25/10
f 24/26/11 78/27/11 76/28/11
f 49/29/12 75/30/12 77/31/12
f 26/32/13 80/33/13 78/27/13
f 79/34/14 49/29/14 77/31/14
f 51/35/15 83/36/15 81/37/15
f 51/35/16 85/38/16 84/39/16
f 34/40/17 87/41/17 32/42/17
f 53/43/18 86/44/18 88/45/18
f 34/40/19 91/46/19 89/47/19
f 54/48/20 88/45/20 90/49/20
f 38/50/21 54/48/21 92/51/21
f 40/52/22 94/53/22 95/54/22
f 26/55/22 22/56/22 97/57/22
f 55/58/23 99/59/23 98/60/23
f 40/61/24 58/62/24 100/63/24
f 56/64/25 57/65/25 41/66/25
f 19/67/26 27/68/26 35/69/26
f 56/64/11 111/70/11 109/71/11
f 55/58/27 109/71/27 108/72/27
f 54/48/28 108/72/28 102/73/28
f 53/43/7 102/73/7 107/74/7
f 52/75/5 107/74/5 117/76/5
f 51/35/29 117/76/29 106/77/29
f 50/78/30 106/77/30 116/79/30
f 49/29/1 116/79/1 105/80/1
f 48/23/24 105/80/24 115/81/24
f 47/20/31 115/81/31 104/82/31
f 46/83/32 104/82/32 114/84/32
f 45/19/19 114/84/19 103/85/19
f 44/9/17 103/85/17 113/86/17
f 43/87/33 113/86/33 110/88/33
f 42/6/34 110/88/34 112/89/34
f 41/4/13 112/89/13 111/90/13
f 5/91/35 92/92/35 93/91/35
f 8/92/36 98/91/36 99/92/36
f 12/93/26 64/94/26 68/95/26
f 83/96/36 4/97/36 81/97/36
f 1/98/22 14/99/22 5/100/22
f 12/93/37 95/94/37 15/94/37
f 15/94/35 63/99/35 64/94/35
f 12/93/38 72/101/38 9/101/38
f 67/102/22 63/99/22 9/101/22
f 1/98/22 82/103/22 77/104/22
f 81/105/26 12/93/26 76/106/26
f 9/101/37 73/93/37 12/93/37
f 1/96/38 85/107/38 4/97/38
f 4/105/26 87/108/26 91/109/26
f 88/110/22 84/98/22 5/100/22
f 15/94/37 62/99/37 14/99/37
f 98/100/22 14/99/22 59/111/22
f 8/112/26 100/113/26 60/114/26
f 4/105/36 94/112/36 96/105/36
f 4/105/38 97/93/38 12/93/38
f 8/112/35 95/94/35 94/112/35
f 111/90/39 144/115/39 143/116/39
f 112/89/40 142/117/40 144/115/40
f 110/88/41 145/118/41 142/117/41
f 113/86/42 135/119/42 145/118/42
f 103/85/43 146/120/43 135/119/43
f 114/84/44 136/121/44 146/120/44
f 104/82/45 147/122/45 136/121/45
f 115/81/46 137/123/46 147/122/46
f 137/123/47 116/79/47 148/124/47
f 148/124/48 106/77/48 138/125/48
f 138/125/49 117/76/49 149/126/49
f 149/126/50 107/74/50 139/127/50
f 139/127/51 102/73/51 134/128/51
f 134/128/52 108/72/52 140/129/52
f 140/129/53 109/71/53 141/130/53
f 109/71/54 143/131/54 141/130/54
f 125/132/24 2/133/24 39/134/24
f 124/135/31 39/134/31 37/136/31
f 118/137/32 37/136/32 35/138/32
f 123/139/19 35/138/19 33/140/19
f 133/141/17 33/140/17 31/142/17
f 122/143/33 31/142/33 29/144/33
f 132/145/34 29/144/34 27/146/34
f 121/147/13 27/146/13 25/148/13
f 131/149/11 25/148/11 23/150/11
f 120/151/27 23/150/27 21/152/27
f 130/153/28 21/152/28 19/154/28
f 119/155/7 19/154/7 17/156/7
f 129/157/5 17/156/5 13/158/5
f 126/159/29 13/158/29 10/160/29
f 128/161/30 10/160/30 6/162/30
f 127/163/1 6/162/1 2/164/1
f 141/130/24 127/165/24 125/132/24
f 140/129/31 125/132/31 124/135/31
f 134/128/32 124/135/32 118/137/32
f 139/127/19 118/137/19 123/139/19
f 149/126/17 123/139/17 133/141/17
f 138/125/33 133/141/33 122/143/33
f 148/124/34 122/143/34 132/145/34
f 137/123/13 132/145/13 121/147/13
f 147/122/11 121/147/11 131/149/11
f 136/121/27 131/149/27 120/151/27
f 146/120/28 120/151/28 130/153/28
f 135/119/7 130/153/7 119/155/7
f 145/118/5 119/155/5 129/157/5
f 142/117/29 129/157/29 126/159/29
f 144/115/30 126/159/30 128/161/30
f 143/116/1 128/161/1 127/163/1
f 3/1/1 7/166/1 60/2/1
f 41/4/2 57/167/2 59/5/2
f 60/2/30 7/166/30 11/7/30
f 11/7/55 43/87/55 42/6/55
f 42/6/56 59/5/56 62/168/56
f 61/8/30 60/2/30 11/7/30
f 42/6/57 62/168/57 61/8/57
f 63/169/58 65/15/58 44/9/58
f 44/9/59 43/87/59 11/7/59
f 11/7/29 16/11/29 66/13/29
f 64/10/60 63/169/60 44/9/60
f 11/7/29 66/13/29 64/10/29
f 16/11/5 18/16/5 68/12/5
f 67/14/6 45/19/6 44/9/6
f 18/16/7 20/170/7 70/17/7
f 69/18/8 46/83/8 45/19/8
f 71/22/28 70/17/28 20/170/28
f 20/170/61 22/24/61 47/20/61
f 47/20/62 46/83/62 69/18/62
f 47/20/62 69/18/62 72/21/62
f 71/22/63 20/170/63 47/20/63
f 74/171/64 75/30/64 48/23/64
f 48/23/65 47/20/65 22/24/65
f 22/24/27 24/26/27 76/28/27
f 73/25/66 74/171/66 48/23/66
f 22/24/27 76/28/27 73/25/27
f 24/26/11 26/32/11 78/27/11
f 49/29/12 48/23/12 75/30/12
f 26/32/13 28/172/13 80/33/13
f 79/34/14 50/78/14 49/29/14
f 81/37/34 80/33/34 28/172/34
f 28/172/67 30/173/67 51/35/67
f 51/35/68 50/78/68 79/34/68
f 51/35/69 79/34/69 82/174/69
f 81/37/70 28/172/70 51/35/70
f 51/35/71 82/174/71 83/36/71
f 86/44/72 52/75/72 51/35/72
f 51/35/73 30/173/73 32/42/73
f 32/42/33 87/41/33 85/38/33
f 84/39/72 86/44/72 51/35/72
f 51/35/74 32/42/74 85/38/74
f 34/40/17 89/47/17 87/41/17
f 53/43/18 52/75/18 86/44/18
f 34/40/19 36/175/19 91/46/19
f 54/48/20 53/43/20 88/45/20
f 91/46/32 36/175/32 38/50/32
f 38/50/75 55/58/75 54/48/75
f 54/48/76 90/49/76 93/176/76
f 92/51/32 91/46/32 38/50/32
f 54/48/77 93/176/77 92/51/77
f 95/54/22 97/57/22 20/177/22
f 20/177/22 18/178/22 16/179/22
f 16/179/22 11/180/22 7/181/22
f 7/181/22 3/182/22 40/52/22
f 40/52/22 38/183/22 36/184/22
f 36/184/22 34/185/22 32/186/22
f 32/186/22 30/187/22 28/188/22
f 32/186/22 28/188/22 96/189/22
f 40/52/22 36/184/22 32/186/22
f 16/179/22 7/181/22 40/52/22
f 95/54/22 20/177/22 16/179/22
f 32/186/22 96/189/22 94/53/22
f 95/54/22 16/179/22 40/52/22
f 40/52/22 32/186/22 94/53/22
f 96/189/22 28/188/22 26/55/22
f 26/55/22 24/190/22 22/56/22
f 22/56/22 20/177/22 97/57/22
f 97/57/22 96/189/22 26/55/22
f 101/191/78 56/64/78 55/58/78
f 55/58/79 38/50/79 40/61/79
f 40/61/31 100/63/31 99/59/31
f 98/60/78 101/191/78 55/58/78
f 55/58/80 40/61/80 99/59/80
f 40/61/24 3/192/24 58/62/24
f 56/64/25 101/191/25 57/65/25
f 35/69/26 37/193/26 39/194/26
f 39/194/26 2/195/26 6/196/26
f 6/196/26 10/197/26 13/198/26
f 13/198/26 17/199/26 19/67/26
f 19/67/26 21/200/26 23/201/26
f 23/201/26 25/202/26 27/68/26
f 27/68/26 29/203/26 31/204/26
f 31/204/26 33/205/26 35/69/26
f 35/69/26 39/194/26 6/196/26
f 6/196/26 13/198/26 19/67/26
f 19/67/26 23/201/26 27/68/26
f 27/68/26 31/204/26 35/69/26
f 35/69/26 6/196/26 19/67/26
f 56/64/11 41/66/11 111/70/11
f 55/58/27 56/64/27 109/71/27
f 54/48/28 55/58/28 108/72/28
f 53/43/7 54/48/7 102/73/7
f 52/75/5 53/43/5 107/74/5
f 51/35/29 52/75/29 117/76/29
f 50/78/30 51/35/30 106/77/30
f 49/29/1 50/78/1 116/79/1
f 48/23/24 49/29/24 105/80/24
f 47/20/31 48/23/31 115/81/31
f 46/83/32 47/20/32 104/82/32
f 45/19/19 46/83/19 114/84/19
f 44/9/17 45/19/17 103/85/17
f 43/87/33 44/9/33 113/86/33
f 42/6/34 43/87/34 110/88/34
f 41/4/13 42/6/13 112/89/13
f 5/91/35 8/92/35 92/92/35
f 8/92/36 5/91/36 98/91/36
f 70/206/26 71/93/26 12/93/26
f 12/93/26 15/94/26 64/94/26
f 64/94/26 66/207/26 68/95/26
f 68/95/26 70/206/26 12/93/26
f 83/96/36 1/96/36 4/97/36
f 1/98/22 9/101/22 14/99/22
f 12/93/37 97/93/37 95/94/37
f 15/94/35 14/99/35 63/99/35
f 12/93/38 71/93/38 72/101/38
f 72/101/22 69/208/22 67/102/22
f 67/102/22 65/209/22 63/99/22
f 63/99/22 14/99/22 9/101/22
f 9/101/22 72/101/22 67/102/22
f 77/104/22 75/210/22 74/101/22
f 74/101/22 9/101/22 1/98/22
f 1/98/81 83/98/81 82/103/81
f 82/103/82 79/211/82 77/104/82
f 77/104/22 74/101/22 1/98/22
f 78/212/26 80/213/26 81/105/26
f 81/105/26 4/105/26 12/93/26
f 12/93/26 73/93/26 76/106/26
f 76/106/26 78/212/26 81/105/26
f 9/101/37 74/101/37 73/93/37
f 1/96/38 84/96/38 85/107/38
f 92/112/26 8/112/26 4/105/26
f 4/105/26 85/105/26 87/108/26
f 87/108/26 89/214/26 91/109/26
f 91/109/26 92/112/26 4/105/26
f 93/100/22 90/215/22 88/110/22
f 88/110/22 86/216/22 84/98/22
f 84/98/22 1/98/22 5/100/22
f 5/100/22 93/100/22 88/110/22
f 15/94/37 61/94/37 62/99/37
f 57/217/22 101/218/22 98/100/22
f 98/100/22 5/100/22 14/99/22
f 14/99/22 62/99/22 59/111/22
f 59/111/22 57/217/22 98/100/22
f 61/94/26 15/94/26 8/112/26
f 8/112/26 99/112/26 100/113/26
f 100/113/26 58/219/26 60/114/26
f 60/114/26 61/94/26 8/112/26
f 4/105/36 8/112/36 94/112/36
f 4/105/38 96/105/38 97/93/38
f 8/112/35 15/94/35 95/94/35
f 111/90/39 112/89/39 144/115/39
f 112/89/40 110/88/40 142/117/40
f 110/88/41 113/86/41 145/118/41
f 113/86/42 103/85/42 135/119/42
f 103/85/43 114/84/43 146/120/43
f 114/84/44 104/82/44 136/121/44
f 104/82/45 115/81/45 147/122/45
f 115/81/46 105/80/46 137/123/46
f 137/123/47 105/80/47 116/79/47
f 148/124/48 116/79/48 106/77/48
f 138/125/49 106/77/49 117/76/49
f 149/126/50 117/76/50 107/74/50
f 139/127/51 107/74/51 102/73/51
f 134/128/52 102/73/52 108/72/52
f 140/129/53 108/72/53 109/71/53
f 109/71/54 111/70/54 143/131/54
f 125/132/24 127/165/24 2/133/24
f 124/135/31 125/132/31 39/134/31
f 118/137/32 124/135/32 37/136/32
f 123/139/19 118/137/19 35/138/19
f 133/141/17 123/139/17 33/140/17
f 122/143/33 133/141/33 31/142/33
f 132/145/34 122/143/34 29/144/34
f 121/147/13 132/145/13 27/146/13
f 131/149/11 121/147/11 25/148/11
f 120/151/27 131/149/27 23/150/27
f 130/153/28 120/151/28 21/152/28
f 119/155/7 130/153/7 19/154/7
f 129/157/5 119/155/5 17/156/5
f 126/159/29 129/157/29 13/158/29
f 128/161/30 126/159/30 10/160/30
f 127/163/1 128/161/1 6/162/1
f 141/130/24 143/131/24 127/165/24
f 140/129/31 141/130/31 125/132/31
f 134/128/32 140/129/32 124/135/32
f 139/127/19 134/128/19 118/137/19
f 149/126/17 139/127/17 123/139/17
f 138/125/33 149/126/33 133/141/33
f 148/124/34 138/125/34 122/143/34
f 137/123/13 148/124/13 132/145/13
f 147/122/11 137/123/11 121/147/11
f 136/121/27 147/122/27 131/149/27
f 146/120/28 136/121/28 120/151/28
f 135/119/7 146/120/7 130/153/7
f 145/118/5 135/119/5 119/155/5
f 142/117/29 145/118/29 129/157/29
f 144/115/30 142/117/30 126/159/30
f 143/116/1 144/115/1 128/161/1
